<svg width="417" height="342" viewBox="0 0 417 342" fill="none" xmlns="http://www.w3.org/2000/svg">
   <path
      d="M111.37 233.041C111.667 232.41 111.949 231.79 112.658 231.536C113.244 231.326 113.876 231.389 114.421 231.663C114.763 232.092 114.95 232.401 114.871 232.97C114.798 233.495 114.549 234.099 114.116 234.424C113.751 234.697 113.547 234.688 113.111 234.722C112.73 234.549 112.466 234.465 112.193 234.135C111.985 233.619 111.768 233.409 111.37 233.041Z"
      fill="#F56751" />
   <path
      d="M312.825 38.1757L312.834 30.5247C312.838 29.6423 313.02 28.5605 312.881 27.7062C312.675 26.4442 310.317 25.6255 311.6 24.3319C311.978 23.9505 312.421 23.697 312.976 23.6804C313.454 23.6662 313.923 23.8526 314.234 24.2209C314.514 24.5512 314.615 24.9706 314.523 25.393C314.401 25.9481 313.857 26.4033 313.456 26.7774C313.451 30.5854 313.502 34.4032 313.437 38.2096L312.825 38.1757Z"
      fill="#F56751" />
   <path
      d="M86.2924 240.862L86.5322 240.861C86.9034 245.034 86.7222 249.33 86.7261 253.518L87.0473 253.707C87.211 253.801 87.3502 253.864 87.4934 253.979C88.0038 254.39 88.3531 255.116 88.4142 255.76C88.2903 256.104 88.2761 256.28 87.998 256.534C87.5321 256.961 86.8975 257.091 86.2814 257.027C85.6724 256.963 85.3347 256.72 84.9467 256.248C84.7884 255.785 84.7582 255.487 84.8728 255.017C85.0497 254.291 85.3101 254.013 85.943 253.618C85.9978 253.584 86.0541 253.552 86.1097 253.518C86.606 252.357 86.1793 242.994 86.2924 240.862Z"
      fill="#F56751" />
   <path
      d="M86.2895 212.289C85.5854 211.825 85.0735 211.418 84.897 210.555C84.8217 210.184 84.9117 210.041 85.0154 209.689C85.4952 209.158 85.9606 208.89 86.6922 208.855C87.2143 208.83 87.7134 208.936 88.0912 209.321C88.3013 209.535 88.37 209.821 88.3492 210.121C88.2877 211.008 87.5428 211.75 86.9297 212.302C86.5555 216.347 86.5044 221.105 86.7568 225.161L86.2913 225.234C86.2165 220.919 86.2159 216.604 86.2895 212.289Z"
      fill="#F56751" />
   <path
      d="M324.658 168.04L325.17 168.026C325.255 171.438 325.185 174.867 325.189 178.28L325.314 178.372C325.383 178.423 325.451 178.476 325.52 178.527C326.175 179.002 327.002 179.707 327.048 180.595C327.071 181.041 326.857 181.313 326.533 181.59C325.98 182.063 324.833 182.128 324.161 181.96C323.574 181.812 323.216 181.553 322.904 181.032C322.847 180.687 322.827 180.477 322.933 180.135C323.156 179.419 323.84 178.738 324.518 178.472C324.606 178.437 324.697 178.41 324.786 178.379C324.631 174.94 324.676 171.483 324.658 168.04Z"
      fill="#F56751" />
   <path
      d="M319.382 44.5327C321.161 44.5301 332.939 44.7973 333.691 44.4158C334.667 43.9203 336.008 42.0609 337.169 43.5791C337.525 44.043 337.54 44.7936 337.371 45.3306C337.257 45.6924 337.04 46.0515 336.687 46.2247C336.22 46.4545 335.6 46.3059 335.161 46.0705C334.702 45.8245 334.326 45.3679 333.977 44.9879C329.14 45.0972 324.303 45.1451 319.465 45.1315L319.382 44.5327Z"
      fill="#F56751" />
   <path
      d="M318.806 162.052C316.882 162.067 305.66 161.522 304.75 162.092C304.035 162.54 304.025 163.486 302.977 163.811C302.632 163.917 302.243 163.912 301.941 163.706C301.478 163.39 301.276 162.918 301.19 162.382C301.091 161.768 301.191 160.777 301.649 160.304C301.939 160.004 302.244 159.806 302.677 159.852C303.485 159.939 304.215 160.66 304.638 161.293C304.672 161.344 304.704 161.395 304.737 161.447C309.432 161.433 314.122 161.55 318.817 161.568L318.806 162.052Z"
      fill="#F56751" />
   <path
      d="M60.5826 233.461C60.0951 234.046 59.6475 234.683 58.9102 234.957C58.4271 235.137 58.0548 235.035 57.6047 234.823C57.1977 234.402 56.9679 234.06 56.9485 233.454C56.9314 232.914 57.0874 232.375 57.5149 232.013C57.9705 231.628 58.5441 231.597 59.1065 231.681C59.7006 231.769 59.9179 232.197 60.2358 232.655L60.3542 232.828C62.4541 233.73 74.9445 232.5 78.6932 232.994L78.8046 233.413L60.5826 233.461Z"
      fill="#FBE7DA" />
   <path
      d="M291.787 45.0948L291.506 45.3082C291.345 45.4324 291.19 45.562 291.012 45.6614C290.519 45.9373 289.524 46.075 288.992 45.8236C288.627 45.6515 288.418 45.3435 288.362 44.9457C288.284 44.3889 288.53 43.7425 288.89 43.3238C289.217 42.9427 289.679 42.668 290.198 42.7165C291.302 42.8195 291.366 43.7012 292.036 44.2949C292.677 44.8632 299.596 44.5343 301.025 44.5588C302.334 44.4192 304.906 44.8737 305.99 44.2145C306.011 44.6435 306.049 45.0629 306.005 45.4908C303.057 44.8532 299.75 45.2559 296.73 45.1156C295.123 45.256 293.405 45.1128 291.787 45.0948Z"
      fill="#FBE7DA" />
   <path
      d="M289.391 43.2734C289.736 43.299 290.106 43.3067 290.437 43.4178C290.866 43.5621 291.022 43.8752 291.171 44.2607C291.096 44.872 290.906 45.1642 290.542 45.6535C290.262 45.6392 289.931 45.6385 289.664 45.552C289.174 45.3927 289.015 45.0905 288.806 44.6594C288.837 44.0277 289.011 43.7697 289.391 43.2734Z"
      fill="#F56751" />
   <path
      d="M301.991 202.564C302.29 201.783 302.538 200.718 303.158 200.136C303.842 200.59 304.001 202.017 304.286 202.783C305.014 202.927 305.718 202.99 306.301 203.482L306.35 203.839C305.772 204.474 304.951 204.657 304.16 204.927C304.015 205.716 303.95 206.735 303.507 207.41L303.176 207.406C302.521 206.706 302.525 205.743 301.874 205.068L299.645 203.686C300.41 203.285 301.21 202.935 301.991 202.564Z"
      fill="#1A1918" />
   <path
      d="M324.449 155.36C324.464 153.187 324.835 146.038 324.371 144.36C324.269 143.988 323.996 143.75 323.73 143.479C323.288 143.03 323.003 142.86 322.877 142.195C323.028 141.406 323.285 140.571 324.005 140.116C324.427 139.849 324.929 139.844 325.394 139.987C325.883 140.137 326.362 140.462 326.628 140.907C326.909 141.38 326.946 142.189 326.721 142.697C326.39 143.445 325.553 143.496 325.188 144.03C324.746 144.675 324.997 153.957 325.004 155.384L324.449 155.36Z"
      fill="#F56751" />
   <path
      d="M331.698 161.564C333.786 161.563 344.588 161.819 345.716 161.519C345.839 161.487 346.128 161.256 346.186 161.2C346.728 160.663 346.97 159.742 347.858 159.667C348.364 159.625 348.927 159.804 349.326 160.126C349.756 160.475 349.985 161.047 349.999 161.591C350.013 162.141 349.815 162.826 349.41 163.219C349.045 163.572 348.658 163.772 348.142 163.777C347.312 163.784 346.865 163.379 346.37 162.798C346.168 162.559 345.969 162.316 345.775 162.07L331.704 162.051L331.698 161.564Z"
      fill="#F56751" />
   <path
      d="M263.345 108.715C263.841 108.47 264.342 108.226 264.863 108.041C266.759 107.365 268.362 107.819 270.098 108.678L270.41 108.948C270.503 109.03 270.597 109.11 270.688 109.193C271.027 109.503 271.104 109.746 271.276 110.166C271.651 111.083 272.168 112.919 273.129 113.267C275.327 114.061 279.651 113.604 282.073 113.566C282.995 113.565 285.814 113.265 286.504 113.752C284.834 114.317 276.383 113.95 274.1 113.942L272.58 113.41C272.261 113.699 272.365 113.504 272.328 113.877C272.242 114.749 270.695 116.449 270.15 117.256L269.237 117.03C268.556 117.343 268.044 117.426 267.3 117.457L267.048 117.469C266.998 117.472 266.947 117.472 266.897 117.473C266.38 117.552 265.872 117.618 265.367 117.755C264.822 117.5 264.234 117.248 263.742 116.898C262.635 116.108 261.775 114.716 261.575 113.372C261.272 111.34 262.199 110.217 263.345 108.715Z"
      fill="#F56751" />
   <path
      d="M263.345 108.715C263.84 108.47 264.341 108.226 264.863 108.041C266.759 107.365 268.362 107.819 270.098 108.678L270.41 108.948C270.502 109.03 270.597 109.11 270.688 109.193C271.027 109.503 271.104 109.746 271.275 110.166C271.651 111.083 272.168 112.919 273.128 113.267C275.327 114.061 279.651 113.604 282.073 113.566C282.995 113.565 285.814 113.265 286.504 113.752C284.834 114.317 276.383 113.95 274.1 113.942L272.58 113.41C272.26 113.699 272.365 113.504 272.328 113.877C272.242 114.749 270.694 116.449 270.15 117.256L269.237 117.03C270.475 115.939 271.453 114.77 271.514 113.026C271.519 112.882 271.517 112.738 271.508 112.594C271.499 112.45 271.482 112.307 271.459 112.164C271.435 112.022 271.405 111.881 271.368 111.742C271.331 111.603 271.287 111.466 271.236 111.331C271.185 111.196 271.128 111.064 271.064 110.934C271 110.805 270.93 110.679 270.854 110.557C270.777 110.434 270.695 110.316 270.607 110.202C270.519 110.087 270.426 109.978 270.327 109.873C270.212 109.753 270.093 109.639 269.967 109.531C269.841 109.423 269.711 109.321 269.575 109.226C269.439 109.132 269.299 109.044 269.154 108.963C269.009 108.882 268.861 108.809 268.709 108.743C268.557 108.678 268.402 108.62 268.244 108.569C268.086 108.519 267.926 108.477 267.764 108.443C267.602 108.409 267.438 108.383 267.273 108.365C267.109 108.348 266.944 108.338 266.778 108.337C265.651 108.321 264.513 108.685 263.703 109.487C262.814 110.367 262.356 111.627 262.385 112.867C262.413 114.06 262.822 115.332 263.747 116.131C264.624 116.889 265.787 117.228 266.897 117.473C266.381 117.552 265.872 117.618 265.367 117.755C264.822 117.499 264.234 117.248 263.742 116.898C262.635 116.107 261.775 114.716 261.575 113.371C261.271 111.34 262.199 110.217 263.345 108.715Z"
      fill="#1A1918" />
   <path
      d="M289.438 204.38C290.296 203.095 291.351 201.889 292.271 200.641C293.571 198.879 294.761 197.033 295.968 195.208C297.911 197.716 300.086 200.02 301.99 202.564C301.209 202.935 300.41 203.285 299.644 203.686L301.874 205.068C301.224 206.049 300.738 207.194 300.153 208.222C298.991 210.267 297.701 212.183 296.283 214.059C294.143 210.708 291.85 207.541 289.438 204.38Z"
      fill="#F9F7F2" />
   <path
      d="M320.183 157.88C317.378 155.373 314.757 152.627 312.058 150.006L312.12 149.757C312.215 149.77 312.318 149.755 312.404 149.796C312.961 150.064 313.794 151.393 314.3 151.891C316.201 153.761 318.239 155.864 320.397 157.415C320.449 157.453 320.502 157.489 320.554 157.525C321.753 156.351 322.867 155.807 324.448 155.36L325.003 155.385C326.804 155.53 328.122 156.168 329.676 157.004C331.017 155.72 334.55 151.916 335.885 151.18C333.952 153.229 332.029 155.349 330.006 157.308C330.83 158.615 331.681 159.96 331.698 161.563L331.703 162.05C331.326 163.562 330.755 164.697 329.853 165.965C331.801 168.001 334.57 171.089 336.705 172.774C336.947 172.965 337.301 172.983 337.595 173.026L337.533 173.334C336.317 173.253 330.654 167.284 329.588 166.26C328.236 167.526 326.959 167.744 325.17 168.025L324.658 168.039L324.328 167.948C323.269 167.668 322.34 167.323 321.438 166.68C319.829 165.534 319.124 163.956 318.805 162.052L318.816 161.567C319.041 160.23 319.576 159.078 320.183 157.88Z"
      fill="#1A1918" />
   <path
      d="M160.875 33.6656C162.705 33.4548 164.628 33.5907 166.465 33.6784C164.546 35.7982 162.229 37.6478 160.134 39.5931C157.15 42.3641 154.273 45.278 151.39 48.1542C150.676 48.9197 149.928 49.6588 149.196 50.4082C148.83 45.9177 148.135 41.4642 147.485 37.008C151.544 34.876 156.353 34.0411 160.875 33.6656Z"
      fill="#1A1918" />
   <path
      d="M307.624 40.4249C305.07 37.898 302.345 35.549 299.826 32.9844C300.74 33.1163 306.698 39.1392 307.806 40.1906C309.302 39.0423 310.892 38.2165 312.825 38.1753L313.437 38.2093C315.346 38.6334 317.22 39.411 318.308 41.1352C318.917 42.0994 319.258 43.4005 319.382 44.5332L319.465 45.1321C319.075 47.1578 318.51 48.8992 316.7 50.1067C315.616 50.8301 314.41 51.1543 313.168 51.4794L313.153 63.2405C313.767 63.2448 314.653 63.133 315.19 63.4509C314.511 63.9387 312.242 63.6533 311.382 63.6127L311.16 63.4742C311.679 63.3207 312.126 63.2429 312.665 63.1937C312.744 63.0973 312.855 63.0202 312.901 62.9043C313.061 62.5065 312.94 52.4998 312.953 51.4494C310.969 51.335 309.134 50.7657 307.757 49.2443C306.794 48.1795 306.301 46.8762 306.005 45.49C306.05 45.0621 306.012 44.6427 305.99 44.2137C306.317 42.7626 306.821 41.6569 307.624 40.4249Z"
      fill="#1A1918" />
   <path
      d="M92.4486 228.194C93.3182 227.321 100.884 219.51 101.365 219.313C101.417 219.223 101.458 219.127 101.52 219.045C101.569 218.979 101.818 218.758 101.887 218.695C102.106 218.76 102.227 218.735 102.351 218.935C99.0546 222.025 95.7166 225.034 92.6162 228.334C93.4599 229.904 94.1468 231.398 94.1968 233.223C98.2014 232.953 102.304 233.13 106.32 233.15C107.869 233.158 109.865 233.382 111.371 233.041C111.768 233.409 111.986 233.619 112.193 234.135C112.032 233.991 111.743 233.652 111.561 233.571C110.287 233.007 96.5245 233.347 94.1189 233.392C93.4849 235.891 92.7016 238.041 90.3621 239.45C89.2711 240.107 88.2148 240.416 86.9816 240.668C86.6627 240.733 86.7832 240.684 86.5318 240.862L86.292 240.862C85.1371 240.181 82.8904 239.97 81.3324 238.871C79.6736 237.702 79.0985 235.3 78.8048 233.413L78.6934 232.993C79.3138 231.234 79.4454 229.639 80.6507 228.076C82.0709 226.233 84.09 225.566 86.2914 225.233L86.7569 225.16C89.0198 225.73 90.8175 226.435 92.4486 228.194Z"
      fill="#1A1918" />
   <path
      d="M65.4602 104.59C65.6412 92.5004 72.3377 72.705 78.4435 62.2549L78.6218 62.3477C78.2535 63.5648 77.3989 64.8586 76.8242 66.0062C75.8942 67.8616 75.0233 69.7443 74.2115 71.6546C70.2223 80.9497 66.0318 94.4943 65.8037 104.594C66.7377 104.743 67.6705 104.89 68.573 105.181C71.8558 106.239 73.6173 108.282 74.0098 111.712C74.0709 112.247 74.0322 113.048 74.3174 113.508C74.3511 113.562 74.399 113.606 74.4398 113.655L74.4552 113.734C73.9813 114.291 73.974 115.045 73.795 115.75C72.5636 120.609 69.6046 120.743 65.4012 121.547L65.1644 121.554C63.4997 120.916 61.8198 120.963 60.2505 119.917C60.1331 119.838 60.0176 119.756 59.9041 119.67C59.7908 119.585 59.6797 119.497 59.5706 119.407C59.4615 119.316 59.3547 119.223 59.2502 119.127C59.1457 119.032 59.0437 118.933 58.944 118.833C58.8444 118.732 58.7472 118.628 58.6524 118.523C58.5579 118.417 58.4659 118.309 58.3766 118.199C58.2872 118.089 58.2006 117.977 58.1167 117.862C58.033 117.748 57.9519 117.632 57.8738 117.513C57.7958 117.395 57.7206 117.275 57.6483 117.153C57.5762 117.031 57.5071 116.907 57.4408 116.782C57.3745 116.657 57.3115 116.53 57.2516 116.401C57.1916 116.273 57.135 116.143 57.0817 116.011C57.0281 115.88 56.9778 115.748 56.9308 115.614C56.8835 115.48 56.8397 115.345 56.7992 115.209C56.7588 115.074 56.7218 114.937 56.6882 114.799C56.6545 114.661 56.6243 114.523 56.5972 114.384C56.5722 114.245 56.5506 114.106 56.5326 113.966C56.5146 113.826 56.5001 113.687 56.4891 113.546C56.4785 113.406 56.4713 113.265 56.4675 113.124C56.4639 112.983 56.4639 112.842 56.4675 112.701C56.4709 112.561 56.4781 112.42 56.4891 112.279C56.4998 112.139 56.5142 111.999 56.5323 111.859C56.5501 111.72 56.5715 111.581 56.5966 111.442C56.6217 111.303 56.6503 111.165 56.6825 111.028C56.7146 110.891 56.7503 110.755 56.7896 110.62C56.8288 110.484 56.8713 110.35 56.9171 110.217C56.9632 110.084 57.0127 109.952 57.0654 109.821C57.1183 109.691 57.1744 109.561 57.2334 109.434C57.2929 109.306 57.3555 109.18 57.4216 109.055C57.4873 108.931 57.5563 108.808 57.6284 108.687C57.7005 108.566 57.7757 108.447 57.8539 108.33C57.9323 108.213 58.0136 108.097 58.0976 107.984C60.0136 105.378 62.4942 104.998 65.4602 104.59Z"
      fill="#F56751" />
   <path
      d="M64.4146 109.057C65.1713 108.996 65.8955 108.928 66.6295 109.166C67.7117 109.518 68.6168 110.232 69.1188 111.265C69.178 111.387 69.231 111.511 69.2778 111.639C69.3243 111.766 69.3643 111.896 69.3976 112.028C69.431 112.159 69.4577 112.292 69.4777 112.426C69.4977 112.56 69.5107 112.695 69.5168 112.831C69.5228 112.966 69.5221 113.102 69.5145 113.237C69.5067 113.373 69.4922 113.508 69.4711 113.642C69.4496 113.776 69.4216 113.908 69.3867 114.039C69.3518 114.171 69.3104 114.3 69.2625 114.427C68.7502 115.802 67.8445 116.404 66.5697 117.019C65.8835 117.073 65.2489 117.078 64.5827 116.876C64.4466 116.836 64.3127 116.79 64.1812 116.737C64.0494 116.684 63.9207 116.624 63.795 116.558C63.6693 116.492 63.5472 116.42 63.4286 116.343C63.3099 116.265 63.1953 116.181 63.0847 116.092C62.9744 116.003 62.8687 115.909 62.7675 115.809C62.6664 115.709 62.5705 115.605 62.4796 115.496C62.3888 115.387 62.3034 115.274 62.2235 115.156C62.1438 115.039 62.0701 114.918 62.0025 114.793C61.4739 113.797 61.3503 112.631 61.7398 111.564C62.2226 110.239 63.1778 109.607 64.4146 109.057Z"
      fill="#1A1918" />
   <path
      d="M77.7136 273.516C79.1138 274.939 80.5836 276.292 82.0379 277.659C89.4112 284.139 96.1586 291.556 102.8 298.772C106.457 302.746 110.234 307.722 114.595 310.843L113.26 311.94C114.626 313.085 115.951 314.341 117.125 315.683C116.188 316.562 115.289 317.454 114.417 318.397L75.1875 276.41C75.9572 275.383 76.844 274.458 77.7136 273.516Z"
      fill="#1A1918" />
   <path
      d="M294.997 104.889C293.488 92.1862 289.511 79.2552 284.086 67.6917C282.379 64.053 280.374 60.3981 278.248 56.9913C277.659 56.0478 275.745 53.5626 275.61 52.6191C277.049 53.8154 278.905 57.3946 279.909 59.1224C288.325 73.611 292.729 88.5669 295.416 105.015C298.198 105.051 300.406 105.61 302.418 107.68C304.275 109.59 305.126 112.179 305.008 114.82C304.911 116.986 304.013 118.961 302.395 120.414C300.302 122.296 297.667 122.895 294.935 122.938L294.645 122.987C292.738 122.168 291.009 121.834 289.393 120.381C287.448 118.633 286.649 116.287 286.504 113.752C285.814 113.264 282.995 113.565 282.073 113.566C283.546 113.468 285 113.449 286.476 113.468C286.953 110.778 287.869 108.299 290.24 106.693C291.668 105.727 293.335 105.265 294.997 104.889Z"
      fill="#F56751" />
   <path
      d="M294.783 109.811C295.509 109.729 296.323 109.645 297.042 109.808C298.005 110.026 298.901 110.773 299.396 111.612C299.934 112.523 300.099 113.683 299.788 114.698C299.393 115.99 298.509 116.634 297.346 117.206C296.616 117.267 295.874 117.297 295.153 117.127C294.084 116.875 293.106 116.233 292.565 115.263C292.508 115.16 292.457 115.055 292.411 114.947C292.364 114.839 292.324 114.729 292.289 114.617C292.254 114.505 292.224 114.392 292.201 114.277C292.177 114.162 292.159 114.046 292.147 113.929C292.135 113.813 292.129 113.695 292.129 113.578C292.129 113.461 292.134 113.343 292.146 113.226C292.158 113.11 292.175 112.994 292.199 112.879C292.222 112.764 292.251 112.65 292.286 112.538C292.693 111.203 293.607 110.46 294.783 109.811Z"
      fill="#1A1918" />
   <path
      d="M54.8457 20.96C54.864 20.9804 54.8819 21.0009 54.9006 21.0206C56.676 22.9253 59.4514 27.8441 60.6992 30.2639C61.1098 30.7992 61.6601 31.3494 61.6773 32.0502C61.5213 32.3692 61.3648 32.6633 61.1658 32.9574C61.1983 33.0075 61.2297 33.0583 61.2625 33.1079C62.017 34.2523 64.642 35.7708 64.6767 36.5885C64.3683 36.9045 64.0899 37.0098 63.6931 37.1832C62.5587 37.6795 61.9343 38.3432 61.3427 39.4277C61.3935 39.5538 61.525 39.8512 61.5517 40.0091C61.9298 42.2444 56.4627 50.8907 55.0498 53.1187C52.9335 50.3313 51.377 46.7444 49.6524 43.6649C48.4682 41.5513 47.087 39.5504 45.897 37.4535C45.6591 37.0348 45.5719 36.8612 45.7019 36.3965C48.6428 31.188 51.6908 26.0423 54.8457 20.96Z"
      fill="#F9F7F2" />
   <path
      d="M60.5379 31.6016C60.7406 32.055 60.9281 32.5223 61.1659 32.9579C61.1984 33.008 61.2298 33.0588 61.2627 33.1084C62.0172 34.2528 64.6421 35.7713 64.6768 36.5889C64.3685 36.905 64.09 37.0102 63.6933 37.1837C62.5588 37.68 61.9344 38.3437 61.3428 39.4282L60.4572 41.6686C59.7005 39.0072 58.8938 37.5538 56.4834 36.0835C56.6858 36.0542 56.7965 36.0455 56.9829 35.9984C58.452 35.6272 59.7911 32.8321 60.5379 31.6016Z"
      fill="#1A1918" />
   <path
      d="M99.2948 109.345C97.4567 107.673 96.3097 105.774 95.5062 103.428C93.7725 98.3675 94.3947 92.4517 96.7806 87.6975C98.5541 84.1636 101.354 81.079 105.174 79.8027C103.65 83.2387 103.879 87.9401 105.207 91.4031C107.12 96.392 112.065 101.293 116.506 104.102C112.862 108.804 110.737 114.379 111.457 120.385C111.602 121.584 111.857 122.824 112.349 123.932C112.011 123.791 111.679 123.636 111.354 123.466C104.703 119.977 101.725 116.423 100.225 109.06C99.7233 106.598 99.3719 104.102 98.6408 101.694C98.5074 104.346 98.8615 106.742 99.2948 109.345Z"
      fill="#1A1918" />
   <path
      d="M142.735 0.0290985C143.078 0.00204651 143.421 -0.00614332 143.764 0.00452858C144.108 0.0152005 144.45 0.044734 144.79 0.0930058C145.131 0.141277 145.467 0.208163 145.8 0.293538C146.133 0.378913 146.46 0.482283 146.782 0.603644C149.928 1.80634 151.433 4.2754 152.753 7.18101C170.366 4.2208 185.57 3.57924 203.269 6.45929C205.818 6.87413 208.409 7.23462 210.931 7.78509C211.626 5.37287 212.655 3.22757 214.775 1.74082C214.912 1.64664 215.05 1.55593 215.191 1.46881C215.332 1.3817 215.475 1.29819 215.621 1.21839C215.766 1.1386 215.913 1.06254 216.063 0.990314C216.212 0.918093 216.362 0.849593 216.515 0.785066C216.668 0.720538 216.822 0.659981 216.978 0.603271C217.133 0.546561 217.29 0.493947 217.449 0.445303C217.607 0.396659 217.767 0.352109 217.928 0.311655C218.089 0.271201 218.25 0.234843 218.413 0.202703C218.575 0.170564 218.738 0.142519 218.903 0.118693C219.066 0.0948672 219.231 0.0752608 219.396 0.0598735C219.561 0.0444861 219.726 0.0333183 219.892 0.026245C220.058 0.0192959 220.223 0.0165647 220.389 0.0180538C220.555 0.0195429 220.72 0.0253762 220.886 0.0353035C221.051 0.0452309 221.216 0.0595017 221.381 0.0778673C221.546 0.0962329 221.71 0.118941 221.873 0.145745C222.037 0.172549 222.2 0.203571 222.362 0.238689C224.894 0.777744 227.033 2.21944 228.441 4.40296C230.159 7.06759 230.226 9.76969 229.599 12.7615C232.093 13.9541 234.542 15.2322 236.947 16.5957C239.352 17.9593 241.706 19.4049 244.01 20.9327C246.314 22.4608 248.562 24.0673 250.754 25.7525C252.945 27.4374 255.076 29.1966 257.145 31.0303C262.312 35.6323 266.863 40.6938 271.151 46.1069C271.813 46.9422 273.456 48.6382 273.514 49.6577C272.977 49.5017 271.809 47.5677 271.356 46.9933C268.759 43.7012 266.149 40.4242 263.222 37.4179C262.242 36.3989 261.244 35.3984 260.227 34.4163C259.21 33.4341 258.176 32.4711 257.124 31.527C256.071 30.5831 255.002 29.6588 253.916 28.7541C252.829 27.8495 251.727 26.9651 250.608 26.1012C249.489 25.237 248.355 24.3938 247.205 23.5717C246.055 22.7493 244.89 21.9486 243.711 21.1694C242.531 20.39 241.338 19.6325 240.131 18.8971C238.923 18.1618 237.703 17.4489 236.469 16.7585C234.231 15.4922 231.958 14.1199 229.562 13.1735C229.493 13.1461 229.423 13.1202 229.353 13.0935L229.285 13.2525C228.06 16.0238 226.405 17.607 223.574 18.7185C222.344 19.1185 220.968 19.2925 219.676 19.1785C217.028 18.9454 214.462 17.6571 212.774 15.5858C210.948 13.3442 210.716 10.8176 210.949 8.07025C205.34 7.21228 199.768 6.19336 194.119 5.60939C192.404 5.44385 190.687 5.30908 188.967 5.20522C187.248 5.10135 185.527 5.02826 183.804 4.98607C182.082 4.94388 180.359 4.93271 178.637 4.95232C176.914 4.97193 175.192 5.02255 173.471 5.10396C171.75 5.18536 170.031 5.29767 168.314 5.44074C166.598 5.58382 164.884 5.75768 163.173 5.9623C161.462 6.16693 159.756 6.40208 158.054 6.66789C156.352 6.93369 154.655 7.23002 152.963 7.55676C152.999 8.25378 153.025 8.9513 153.041 9.64907C153.109 13.4879 150.833 16.8212 147.341 18.3478C146.662 18.6449 145.469 18.7935 144.988 19.2875C145.029 19.6975 145.052 20.0954 145.053 20.5075C145.017 20.4325 144.911 20.2207 144.898 20.1472C144.843 19.8392 144.824 19.57 144.741 19.2579C143.651 18.8377 141.944 19.2517 140.498 18.7887C137.593 17.8589 135.901 15.843 134.538 13.2481C121.635 18.8702 111.805 24.5024 101.316 34.0154C98.138 36.8982 95.3644 40.2914 92.1406 43.0738C92.9853 41.3741 96.143 38.4664 97.5771 37.0623C109.221 25.6645 119.636 19.3952 134.437 12.9256C134.324 12.5094 134.214 12.0911 134.133 11.6678C134.103 11.5062 134.077 11.344 134.056 11.1812C134.034 11.0184 134.016 10.8551 134.002 10.6914C133.989 10.5278 133.979 10.3637 133.974 10.1995C133.968 10.0354 133.967 9.8712 133.97 9.7069C133.973 9.5426 133.979 9.37855 133.99 9.21463C134.001 9.0507 134.016 8.88715 134.035 8.72397C134.054 8.56079 134.078 8.39822 134.104 8.23616C134.132 8.0741 134.163 7.9129 134.198 7.75245C134.233 7.592 134.272 7.43254 134.315 7.27395C134.358 7.11549 134.405 6.95814 134.456 6.80191C134.507 6.6458 134.562 6.49093 134.621 6.33743C134.679 6.18393 134.742 6.03204 134.808 5.88177C134.874 5.73149 134.944 5.58283 135.018 5.43603C135.091 5.28923 135.169 5.14429 135.249 5.00121C135.33 4.85826 135.415 4.71729 135.503 4.57843C135.59 4.43957 135.682 4.30307 135.776 4.1688C137.477 1.77842 139.896 0.511071 142.735 0.0290985Z"
      fill="#F56751" />
   <path
      d="M142.819 5.48806C143.738 5.43544 144.519 5.38568 145.356 5.81765C145.477 5.88081 145.594 5.94993 145.708 6.02475C145.821 6.09958 145.931 6.17987 146.036 6.26562C146.142 6.35137 146.243 6.4422 146.34 6.538C146.436 6.6338 146.528 6.73406 146.614 6.83905C146.701 6.9439 146.782 7.05286 146.858 7.16578C146.934 7.2787 147.004 7.39523 147.068 7.5151C147.132 7.63509 147.19 7.75782 147.242 7.88353C147.294 8.00923 147.34 8.13717 147.379 8.26747C147.686 9.29421 147.579 10.3989 147.027 11.3216C146.389 12.3887 145.466 12.7855 144.315 13.1059C143.615 13.1355 142.911 13.0694 142.247 12.8312C141.209 12.4589 140.332 11.6799 139.917 10.6499C139.872 10.5379 139.832 10.4237 139.798 10.3075C139.765 10.1914 139.737 10.0739 139.715 9.95499C139.693 9.83599 139.677 9.71624 139.667 9.59575C139.657 9.47525 139.654 9.35451 139.656 9.23353C139.659 9.11254 139.667 8.99204 139.682 8.87204C139.696 8.75205 139.717 8.63292 139.744 8.51503C139.77 8.39702 139.803 8.28075 139.841 8.16608C139.88 8.05142 139.924 7.939 139.974 7.8288C140.558 6.51926 141.541 5.99386 142.819 5.48806Z"
      fill="#1A1918" />
   <path
      d="M219.161 5.29108C220.202 5.17356 221.162 5.20248 222.098 5.73111C223.508 6.52815 223.965 8.01961 224.382 9.47186C224.272 9.90047 224.14 10.3224 223.986 10.7375C223.457 12.1706 222.683 12.8166 221.328 13.4593C220.664 13.4976 220.032 13.5294 219.387 13.3321C218.163 12.9572 217.098 12.0983 216.549 10.9329C216.081 9.93944 216.012 8.7757 216.422 7.74983C216.944 6.44414 217.927 5.83274 219.161 5.29108Z"
      fill="#1A1918" />
   <path
      d="M65.1641 121.553L65.4008 121.547C65.7793 125.195 66.0811 128.859 66.717 132.474C66.8551 133.308 67.0026 134.14 67.1598 134.971C67.3172 135.801 67.484 136.63 67.6601 137.457C67.8361 138.284 68.0218 139.108 68.2169 139.931C68.4119 140.753 68.6163 141.573 68.83 142.391C69.0439 143.209 69.2672 144.024 69.4997 144.837C69.7324 145.65 69.9741 146.46 70.225 147.267C70.4762 148.074 70.7365 148.878 71.0062 149.679C71.2756 150.481 71.5542 151.279 71.8418 152.074C72.1297 152.869 72.4267 153.66 72.7327 154.448C73.0386 155.236 73.3535 156.02 73.6772 156.801C74.0012 157.582 74.334 158.359 74.6757 159.132C75.0172 159.906 75.3677 160.675 75.7269 161.44C76.0862 162.205 76.4542 162.966 76.8311 163.723C77.2079 164.479 77.5933 165.232 77.9871 165.98C78.381 166.728 78.7835 167.471 79.1947 168.21C79.6057 168.948 80.025 169.682 80.4527 170.412C80.8807 171.141 81.3168 171.865 81.7611 172.584C82.2054 173.303 82.6579 174.017 83.1188 174.725C83.5797 175.434 84.0484 176.137 84.5252 176.836C85.002 177.533 85.487 178.226 85.9798 178.913C86.4725 179.6 86.973 180.281 87.4812 180.956C87.9896 181.632 88.5055 182.301 89.0292 182.965C89.5529 183.628 90.0841 184.286 90.6229 184.937C91.1615 185.589 91.7076 186.234 92.2613 186.873C92.8148 187.512 93.3754 188.144 93.9435 188.77C94.5116 189.396 95.0866 190.015 95.6687 190.628C96.2509 191.241 96.8401 191.847 97.4361 192.447C98.0321 193.046 98.635 193.639 99.2447 194.224C99.8544 194.81 100.471 195.388 101.094 195.96C101.716 196.531 102.346 197.096 102.981 197.653C103.617 198.21 104.26 198.76 104.908 199.302C105.557 199.844 106.211 200.379 106.872 200.906C108.06 201.868 109.267 202.806 110.493 203.719C111.718 204.632 112.962 205.52 114.224 206.383C115.486 207.245 116.765 208.082 118.06 208.893C119.356 209.704 120.668 210.489 121.995 211.247C123.322 212.005 124.665 212.735 126.022 213.439C127.379 214.143 128.749 214.818 130.134 215.467C131.518 216.115 132.915 216.735 134.324 217.326C135.734 217.918 137.155 218.481 138.587 219.015L138.775 218.831L138.763 218.114C139.342 218.028 146.452 221.691 147.698 222.223C151.031 223.627 154.445 224.797 157.94 225.732C176.705 230.878 197.22 229.099 215.443 222.69C217.426 221.992 222.889 220.173 224.163 218.844C225.842 218.775 228.139 217.419 229.677 216.678C239.397 211.996 248.555 206.295 256.636 199.109C278.873 179.335 292.861 152.889 294.645 122.988L294.935 122.938C293.02 153.685 278.938 179.824 256.05 200.091C247.367 207.78 234.963 215.105 224.134 219.307C223.937 225.957 225.002 233.52 219.611 238.541C218.347 239.717 216.954 240.177 215.262 240.379C211.583 240.817 207.698 240.587 203.992 240.582L184.567 240.485L161.243 240.297C156.575 240.286 151.88 240.434 147.217 240.246C144.673 240.143 142.378 239.617 140.58 237.649C137.65 234.439 138.233 228.214 138.494 224.143C138.511 223.877 138.531 223.612 138.554 223.347C145.392 229.514 164.572 234.128 173.761 234.031C175.987 234.396 178.423 234.366 180.678 234.378C192.452 234.442 203.719 232.661 214.842 228.759C217.749 227.739 220.744 226.693 223.364 225.053L223.41 224.686L223.61 224.639L223.522 224.929L223.727 224.627C221.942 224.826 219.894 226.029 218.224 226.712C216.285 227.504 214.298 228.258 212.297 228.879C199.699 232.788 188.678 233.77 175.51 233.481C171.494 233.147 167.478 232.823 163.502 232.141C155.61 230.786 144.784 227.666 138.626 222.446L138.632 219.505C126.61 215.183 114.043 207.472 104.331 199.178C80.9059 179.173 67.5463 152.175 65.1641 121.553Z"
      fill="#1A1918" />
   <path
      d="M136.638 48.441C137.475 47.5469 137.804 46.2948 138.461 45.2666C140.538 42.0114 143.514 39.4878 146.741 37.4355C147.219 42.0853 148.024 46.7158 148.631 51.352C145.461 52.147 142.769 54.9447 141.142 57.6587C137.149 64.3192 140.811 70.13 138.629 75.1025C137.76 77.0833 136.222 78.4051 134.388 79.4651C132.988 80.274 131.491 80.9858 130.208 81.9748C124.931 86.0415 125.029 92.2416 125.248 98.3283C122.298 99.2301 119.905 100.313 117.816 102.648C112.603 99.1179 107.392 94.3475 106.166 87.8976C105.954 86.785 105.801 85.6016 105.797 84.4682C105.793 83.1087 106.492 80.9785 105.84 79.7845C106.638 79.4265 107.538 79.049 108.399 78.8718C108.874 78.7739 109.064 78.9003 109.436 79.1714C109.886 80.3917 109.285 82.23 109.438 83.5975C109.55 84.6004 109.83 85.9984 110.742 86.6012C111.215 86.9139 111.864 86.9787 112.406 86.8307C114.359 86.2987 114.519 83.1076 115.498 81.5952C117.649 78.2754 122.102 77.7804 125.631 77.054C127.615 76.6458 128.778 75.8603 129.884 74.1894C125.752 77.8684 121.875 76.2465 117.52 79.1272C113.936 81.4985 114.564 84.8161 112.408 86.4943C112.024 86.5626 111.934 86.6149 111.543 86.4943C110.942 86.3086 110.51 85.9177 110.246 85.3463C109.078 82.8204 110.339 77.9877 111.308 75.5589C112.093 73.5932 114.471 71.3574 116.565 70.7948C117.648 70.5036 118.87 70.4156 119.888 69.9569L119.702 69.6661C119.418 69.5184 119.23 69.4359 118.901 69.4432C116.65 69.4915 111.923 72.6095 110.976 74.6527C110.454 75.7781 110.421 77.4825 109.687 78.4186C109.379 78.3664 109.422 78.4318 109.236 78.2005C107.96 76.6141 107.827 72.3059 107.915 70.3427C108.175 64.5573 111.407 58.772 115.572 54.8898C120.148 50.624 126.117 48.4014 132.262 47.6909C133.403 47.5586 134.709 47.3438 135.855 47.4242C136.273 47.4534 136.322 47.4804 136.584 47.7771L136.267 48.2163L136.638 48.441Z"
      fill="#1A1918" />
   <path
      d="M138.025 55.3398C138.031 55.3504 138.034 55.3624 138.042 55.3709C138.072 55.4038 138.106 55.4323 138.138 55.4629C137.825 56.0977 135.453 57.0893 134.698 58.4689C133.19 61.2286 134.143 64.985 133.105 67.9724C133.082 68.0382 133.058 68.1039 133.034 68.1693L132.901 68.0057C132.549 66.7455 133.323 59.9312 134.045 58.4287C134.892 56.6687 136.269 55.9464 138.025 55.3398Z"
      fill="#F56751" />
   <path
      d="M126.648 61.5307C126.621 60.837 126.632 60.1438 126.681 59.4513C126.883 56.3079 128.103 53.1675 130.513 51.0659C131.803 49.9405 134.555 48.11 136.268 48.2163L136.638 48.4411C132.967 50.147 129.827 51.7087 128.34 55.7881C127.703 57.5349 127.402 59.5123 127.417 61.3677C127.811 65.3997 129.432 68.1662 131.802 71.3579C131.384 71.1277 130.981 70.8789 130.613 70.5737C128.081 68.4743 126.944 64.6795 126.648 61.5307Z"
      fill="#F56751" />
   <path
      d="M67.074 270.099C68.1306 270.871 69.111 272.095 70.0409 273.041C73.5485 276.608 76.8518 280.38 80.2714 284.032L101.592 306.579C107.394 312.734 113.085 319.046 119.387 324.696C117.208 327.149 114.669 329.419 112.319 331.714L102.977 340.981C99.4585 337.789 96.2758 334.216 93.002 330.778L76.8294 313.844L58.9719 295.247C56.1534 292.27 53.0718 289.34 50.5303 286.129C56.2775 281.055 61.4479 275.313 67.074 270.099Z"
      fill="#F56751" />
   <path
      d="M53.0729 291.336C56.1498 294.246 58.9997 297.495 61.9238 300.563C67.1049 305.91 72.2377 311.302 77.3223 316.741C85.0744 325.006 93.0645 332.993 100.658 341.417L47.8674 341.424C31.9322 341.424 15.9277 341.709 0 341.369C17.6355 324.652 35.0409 307.619 53.0729 291.336Z"
      fill="#1A1918" />
   <path
      d="M270.15 117.256C270.695 116.448 272.242 114.749 272.328 113.876C272.365 113.503 272.26 113.699 272.58 113.409L274.1 113.942C276.383 113.95 284.834 114.316 286.504 113.752C286.649 116.287 287.449 118.633 289.393 120.381C291.01 121.834 292.738 122.168 294.645 122.987C292.86 152.889 278.873 179.335 256.636 199.109C248.555 206.295 239.397 211.996 229.677 216.677C228.139 217.418 225.842 218.775 224.163 218.844C224.066 217.486 224.229 216.019 224.275 214.656C226.493 213.768 229.344 212.407 231.004 210.663C230.968 209.07 230.975 207.455 230.867 205.866C230.828 205.296 230.58 204.683 230.595 204.127C230.606 203.716 230.768 203.271 230.901 202.883C230.484 203.538 230.24 204.377 229.955 205.101C229.311 201.828 229.595 198.658 229.392 195.355C229.335 185.683 229.345 176.01 229.422 166.338C230.537 164.88 231.689 163.452 232.879 162.054L232.623 161.811C234.306 159.852 236.038 158.114 238.027 156.467C237.308 153.752 236.689 151.014 235.948 148.302C230.57 148.115 225.166 148.189 219.785 148.164C219.38 149.953 218.851 151.478 217.21 152.519C217.048 152.62 216.882 152.712 216.711 152.795C216.54 152.878 216.365 152.953 216.186 153.018C216.007 153.083 215.825 153.139 215.641 153.185C215.456 153.231 215.27 153.268 215.081 153.295C214.892 153.321 214.703 153.338 214.513 153.345C214.323 153.352 214.133 153.349 213.943 153.337C213.753 153.324 213.564 153.301 213.377 153.269C213.189 153.236 213.004 153.194 212.82 153.142C212.646 153.095 212.475 153.039 212.306 152.974C212.137 152.91 211.972 152.837 211.81 152.755C211.649 152.673 211.492 152.584 211.34 152.487C211.188 152.389 211.041 152.284 210.9 152.172C210.758 152.06 210.623 151.941 210.493 151.815C210.364 151.689 210.241 151.556 210.125 151.418C210.009 151.279 209.9 151.135 209.799 150.985C209.698 150.836 209.604 150.681 209.519 150.522C208.615 148.841 208.856 147.194 209.368 145.455C209.848 144.547 210.461 143.959 211.281 143.358C211.374 139.962 211.391 136.565 211.332 133.168L215.824 132.946C219.161 131.081 217.727 129.777 222.473 129.525C222.751 128.03 222.574 126.208 222.576 124.678L222.585 114.84C225.757 114.91 229.193 114.54 232.323 115.038C233.939 114.661 235.649 114.492 237.144 115.389C237.974 115.886 238.593 116.602 239.022 117.463L238.465 117.887C238.965 119.163 238.909 119.955 238.678 121.277L239.246 121.868C239.753 121.683 251.454 121.451 252.283 121.639C252.761 121.756 253.138 121.913 253.578 122.124L253.858 121.672C255.17 121.032 266.901 121.457 269.221 121.554L269.398 121.463C270.243 120.383 269.98 118.893 270.113 117.599L270.15 117.256Z"
      fill="#F9F7F2" />
   <path
      d="M270.15 117.256C270.694 116.448 272.242 114.749 272.328 113.876C272.365 113.503 272.26 113.699 272.579 113.409L274.1 113.942C273.739 114.98 273.912 115.977 273.922 117.054C274.322 125.879 271.802 134.273 265.787 140.879C264.016 142.823 260.569 146.018 258.082 146.811C258.034 146.854 257.988 146.897 257.938 146.938C256.886 147.789 255.622 148.222 254.771 149.351C253.591 150.918 251.346 156.655 250.398 158.774C248.509 162.999 231.334 202.465 230.901 202.884C230.484 203.539 230.24 204.377 229.955 205.101C229.311 201.828 229.595 198.658 229.392 195.356C229.335 185.683 229.345 176.011 229.422 166.338C230.537 164.88 231.689 163.452 232.879 162.055L232.623 161.811C234.306 159.852 236.038 158.115 238.027 156.467C237.308 153.753 236.689 151.015 235.948 148.303C230.57 148.115 225.166 148.189 219.785 148.165C219.38 149.953 218.851 151.478 217.21 152.519C217.048 152.62 216.882 152.712 216.711 152.796C216.54 152.879 216.365 152.953 216.186 153.018C216.007 153.083 215.825 153.139 215.641 153.185C215.456 153.232 215.27 153.268 215.081 153.295C214.892 153.322 214.703 153.339 214.513 153.345C214.323 153.352 214.133 153.35 213.943 153.337C213.753 153.324 213.564 153.301 213.377 153.269C213.189 153.237 213.004 153.194 212.82 153.143C212.646 153.095 212.475 153.039 212.306 152.975C212.137 152.91 211.972 152.837 211.81 152.755C211.649 152.674 211.492 152.584 211.34 152.487C211.188 152.39 211.041 152.285 210.9 152.173C210.758 152.06 210.623 151.941 210.493 151.815C210.364 151.689 210.241 151.557 210.125 151.418C210.009 151.279 209.9 151.135 209.799 150.986C209.698 150.836 209.604 150.682 209.519 150.523C208.615 148.842 208.856 147.194 209.368 145.455C209.848 144.547 210.461 143.96 211.281 143.358C211.374 139.962 211.391 136.565 211.332 133.168L215.824 132.946C219.161 131.081 217.727 129.777 222.473 129.525C222.751 128.03 222.574 126.208 222.576 124.678L222.585 114.841C225.757 114.91 229.193 114.541 232.323 115.038C233.939 114.661 235.649 114.493 237.144 115.389C237.974 115.887 238.593 116.603 239.022 117.463L238.465 117.888C238.965 119.163 238.909 119.956 238.678 121.277L239.246 121.869C239.753 121.683 251.454 121.451 252.283 121.64C252.761 121.756 253.138 121.913 253.578 122.124L253.858 121.672C255.17 121.033 266.901 121.457 269.221 121.555L269.398 121.464C270.243 120.383 269.98 118.893 270.113 117.6L270.15 117.256Z"
      fill="#F9F7F2" />
   <path
      d="M252.283 121.641C252.761 121.757 253.138 121.914 253.578 122.125C252.223 125.955 250.916 129.801 249.658 133.663C249.131 135.397 248.59 137.102 248.315 138.898L247.912 141.16C245.54 143.565 242.94 146.211 240.146 148.114C240.716 150.069 241.311 152.019 241.752 154.007C245.395 152.288 249.242 151.117 252.876 149.416C253.799 148.984 257.357 146.782 258.082 146.812C258.034 146.854 257.988 146.898 257.938 146.938C256.886 147.79 255.622 148.223 254.771 149.351C253.591 150.918 251.346 156.656 250.398 158.775C248.509 163 231.334 202.466 230.901 202.884C230.967 201.572 252.757 152.337 254.932 148.698C251.793 150.432 248.582 151.478 245.281 152.801C240.282 154.806 236.376 158.041 232.879 162.055L232.623 161.812C234.306 159.853 236.038 158.115 238.027 156.468C237.308 153.753 236.689 151.016 235.948 148.303C230.57 148.116 225.166 148.19 219.785 148.166C219.38 149.954 218.851 151.479 217.21 152.52C217.048 152.621 216.882 152.713 216.711 152.796C216.54 152.88 216.365 152.954 216.186 153.019C216.007 153.084 215.825 153.14 215.641 153.186C215.456 153.232 215.27 153.269 215.081 153.296C214.892 153.323 214.703 153.339 214.513 153.346C214.323 153.353 214.133 153.35 213.943 153.338C213.753 153.325 213.564 153.302 213.377 153.27C213.189 153.237 213.004 153.195 212.82 153.143C212.646 153.096 212.475 153.04 212.306 152.975C212.137 152.911 211.972 152.838 211.81 152.756C211.649 152.675 211.492 152.585 211.34 152.488C211.188 152.39 211.041 152.285 210.9 152.173C210.758 152.061 210.623 151.942 210.493 151.816C210.364 151.69 210.241 151.557 210.125 151.419C210.009 151.28 209.9 151.136 209.799 150.986C209.698 150.837 209.604 150.682 209.519 150.523C208.615 148.842 208.856 147.195 209.368 145.456C209.848 144.548 210.461 143.961 211.281 143.359C211.494 143.27 211.709 143.187 211.927 143.109C213.514 142.541 215.304 142.488 216.842 143.247C218.397 144.014 219.138 145.313 219.712 146.879C225.181 146.483 230.657 146.27 236.14 146.24C237.7 143.58 241.009 141.803 243.468 139.969C245.509 133.476 249.318 127.742 252.283 121.641Z"
      fill="#1A1918" />
   <path
      d="M213.357 143.437C214.202 143.403 215.028 143.443 215.836 143.715C217.026 144.113 218.058 144.948 218.61 146.084C219.111 147.114 219.126 148.28 218.738 149.349C218.164 150.936 216.963 151.823 215.482 152.488C214.353 152.633 213.273 152.657 212.229 152.134C212.085 152.063 211.945 151.985 211.809 151.9C211.673 151.815 211.541 151.722 211.415 151.623C211.288 151.524 211.167 151.419 211.051 151.308C210.935 151.197 210.825 151.08 210.722 150.957C210.618 150.834 210.521 150.706 210.43 150.573C210.34 150.441 210.256 150.304 210.18 150.163C210.103 150.021 210.034 149.876 209.973 149.728C209.911 149.58 209.858 149.428 209.812 149.274C209.448 148.083 209.53 146.739 210.145 145.643C210.871 144.35 211.983 143.821 213.357 143.437Z"
      fill="#F56751" />
   <path
      d="M270.15 117.256C270.694 116.448 272.242 114.749 272.328 113.876C272.365 113.503 272.26 113.699 272.58 113.409L274.1 113.942C273.74 114.98 273.912 115.977 273.922 117.054C274.323 125.879 271.802 134.273 265.787 140.879C264.016 142.823 260.57 146.018 258.082 146.811C257.357 146.782 253.799 148.983 252.876 149.416C249.242 151.116 245.395 152.287 241.752 154.007C241.311 152.018 240.716 150.069 240.146 148.113C242.941 146.21 245.54 143.565 247.913 141.159L248.315 138.897C248.59 137.101 249.131 135.396 249.658 133.663C250.916 129.8 252.223 125.954 253.578 122.125L253.858 121.673C255.17 121.033 266.901 121.457 269.221 121.555L269.398 121.464C270.243 120.383 269.979 118.893 270.113 117.6L270.15 117.256Z"
      fill="#FBE7DA" />
   <path
      d="M273.57 117.696C273.492 122.893 274.276 124.402 270.791 128.899C269.58 130.462 268.349 131.97 266.922 133.346C262.895 137.227 258.279 139.573 252.6 139.446C251.155 139.4 249.726 139.217 248.315 138.898C248.591 137.102 249.131 135.397 249.658 133.663C256.762 131.95 263.027 130.538 267.944 124.533C269.756 122.227 272.141 120.257 273.57 117.696Z"
      fill="#F9F7F2" />
   <path
      d="M232.324 115.039C233.94 114.662 235.649 114.494 237.144 115.39C237.974 115.887 238.593 116.604 239.022 117.464L238.465 117.889C238.965 119.164 238.909 119.957 238.679 121.278L239.246 121.869C239.754 121.684 251.454 121.452 252.284 121.641C249.319 127.742 245.509 133.476 243.469 139.97C241.009 141.804 237.7 143.58 236.14 146.24C230.657 146.27 225.181 146.483 219.713 146.88C219.138 145.313 218.397 144.015 216.843 143.248C215.304 142.489 213.514 142.541 211.927 143.11C211.71 143.188 211.495 143.271 211.281 143.359C211.374 139.963 211.391 136.567 211.333 133.17L215.824 132.947C219.161 131.083 217.728 129.778 222.474 129.526C222.751 128.031 222.574 126.209 222.576 124.679L222.585 114.842C225.758 114.911 229.194 114.541 232.324 115.039Z"
      fill="#FBE7DA" />
   <path
      d="M232.323 115.039C233.939 114.662 235.649 114.494 237.144 115.39C237.973 115.887 238.593 116.604 239.022 117.464L238.465 117.889C238.965 119.164 238.909 119.957 238.678 121.278L239.246 121.869C238.725 122.839 238.207 123.677 237.314 124.349C237.175 124.455 237.031 124.553 236.882 124.643C236.733 124.733 236.58 124.816 236.422 124.89C236.264 124.964 236.103 125.03 235.938 125.087C235.773 125.145 235.606 125.193 235.436 125.233C235.266 125.273 235.094 125.303 234.921 125.325C234.748 125.347 234.574 125.359 234.4 125.363C234.226 125.366 234.052 125.361 233.878 125.346C233.704 125.331 233.531 125.307 233.36 125.274C233.188 125.242 233.017 125.201 232.849 125.151C232.681 125.102 232.516 125.044 232.353 124.978C232.19 124.912 232.032 124.838 231.876 124.756C231.721 124.674 231.571 124.585 231.424 124.488C231.278 124.391 231.137 124.287 231.001 124.176C230.865 124.065 230.735 123.948 230.611 123.824C230.487 123.7 230.369 123.57 230.258 123.434C230.147 123.299 230.043 123.158 229.946 123.011C229.165 121.855 228.839 120.376 229.111 119.004C229.485 117.12 230.796 116.021 232.323 115.039Z"
      fill="#F56751" />
   <path
      d="M232.323 115.039C233.939 114.662 235.649 114.494 237.144 115.39C237.974 115.887 238.593 116.604 239.022 117.464L238.465 117.889C237.58 116.568 236.839 115.8 235.237 115.503C234.064 115.286 232.873 115.477 231.878 116.156C231.749 116.246 231.624 116.343 231.505 116.445C231.385 116.548 231.271 116.656 231.162 116.77C231.053 116.884 230.95 117.003 230.853 117.127C230.756 117.251 230.665 117.38 230.581 117.513C230.497 117.647 230.419 117.784 230.349 117.925C230.278 118.066 230.215 118.21 230.159 118.357C230.103 118.505 230.054 118.654 230.013 118.806C229.971 118.959 229.938 119.113 229.912 119.268C229.698 120.532 230 121.907 230.759 122.946C231.44 123.878 232.465 124.415 233.605 124.538C234.952 124.684 236.119 124.337 237.134 123.434C237.827 122.818 238.257 122.092 238.678 121.278L239.246 121.869C238.725 122.839 238.207 123.677 237.314 124.349C237.175 124.455 237.031 124.553 236.882 124.643C236.733 124.733 236.58 124.816 236.422 124.89C236.264 124.964 236.103 125.03 235.938 125.087C235.773 125.145 235.606 125.193 235.436 125.233C235.266 125.273 235.094 125.303 234.921 125.325C234.748 125.347 234.574 125.36 234.4 125.363C234.226 125.366 234.052 125.361 233.878 125.346C233.704 125.331 233.531 125.307 233.36 125.274C233.188 125.242 233.017 125.201 232.849 125.151C232.681 125.102 232.516 125.044 232.353 124.978C232.19 124.912 232.032 124.838 231.876 124.756C231.721 124.674 231.571 124.585 231.424 124.488C231.278 124.391 231.137 124.287 231.001 124.176C230.865 124.065 230.735 123.948 230.611 123.824C230.487 123.7 230.369 123.57 230.258 123.434C230.147 123.299 230.043 123.158 229.946 123.012C229.165 121.855 228.839 120.376 229.111 119.004C229.485 117.12 230.796 116.021 232.323 115.039Z"
      fill="#1A1918" />
   <path
      d="M216.447 252.505L234.34 250.527C237.818 250.168 241.814 249.326 245.272 249.867C247.736 250.253 250.175 251.425 252.114 252.976C254.958 255.25 257.303 258.953 257.647 262.628C257.736 263.588 257.664 264.617 257.5 265.565C263.054 261.634 268.99 258.41 275.614 256.648C278.612 255.851 280.917 255.985 283.644 257.549C286.298 256.445 288.996 255.462 291.737 254.597C293.796 253.564 296.922 252.835 299.16 253.521C300.588 253.959 301.751 254.989 302.443 256.304C303.401 258.123 303.117 259.333 303.222 261.226C305.081 260.016 307.069 258.627 309.152 257.858C311.551 257.058 313.643 256.575 316.052 257.75C317.497 258.456 318.513 259.756 318.994 261.277C319.06 261.487 319.115 261.699 319.16 261.915C319.205 262.13 319.239 262.347 319.262 262.566C319.286 262.785 319.298 263.005 319.299 263.225C319.301 263.445 319.292 263.664 319.272 263.884C319.251 264.103 319.221 264.321 319.179 264.537C319.137 264.753 319.085 264.966 319.022 265.177C318.959 265.388 318.886 265.595 318.802 265.799C318.719 266.003 318.626 266.202 318.523 266.396C317.081 269.083 312.11 272.725 309.697 274.705C308.443 275.723 307.176 276.724 305.896 277.71C304.616 278.695 303.323 279.663 302.018 280.615C300.713 281.567 299.396 282.502 298.067 283.42C296.738 284.338 295.397 285.238 294.044 286.122C292.692 287.005 291.328 287.871 289.954 288.719C288.579 289.567 287.193 290.397 285.797 291.209C284.401 292.021 282.994 292.816 281.578 293.592C280.161 294.368 278.735 295.125 277.298 295.864C275.862 296.603 274.417 297.324 272.962 298.026C271.507 298.728 270.044 299.411 268.571 300.075C267.099 300.739 265.618 301.385 264.129 302.01C262.64 302.636 261.143 303.243 259.638 303.83C258.133 304.418 256.621 304.985 255.102 305.534C253.582 306.082 252.056 306.611 250.523 307.12C248.99 307.629 247.451 308.118 245.905 308.587C244.359 309.056 242.808 309.505 241.251 309.934C225.797 314.119 205.728 317.406 189.778 315.719C183.459 315.051 177.189 313.441 171.078 311.75C159.57 308.566 137.003 300.56 125.82 303.519C121.567 304.645 117.722 307.843 114.595 310.845C110.234 307.723 106.457 302.747 102.8 298.773C96.1589 291.557 89.4114 284.14 82.0381 277.66C83.0846 276.452 84.0912 275.209 85.1262 273.991C94.7021 262.724 106.998 253.571 121.851 250.971C127.411 249.997 133.104 249.948 138.727 250.194C141.754 250.321 144.772 250.551 147.783 250.885C150.793 251.219 153.789 251.656 156.77 252.195C165.35 253.772 175.117 256.511 183.687 257.01C188.841 257.31 193.748 256.085 198.769 255.166C204.608 254.098 210.526 252.985 216.447 252.505Z"
      fill="#F56751" />
   <path
      d="M216.447 252.505L234.34 250.527C237.818 250.168 241.814 249.326 245.271 249.867C247.736 250.253 250.175 251.425 252.114 252.976C254.958 255.25 257.303 258.953 257.646 262.628C257.736 263.588 257.664 264.617 257.5 265.565C263.054 261.634 268.99 258.41 275.614 256.648C278.611 255.851 280.917 255.985 283.644 257.549C286.298 256.445 288.996 255.462 291.737 254.597C293.796 253.564 296.922 252.835 299.16 253.521C300.588 253.959 301.751 254.989 302.443 256.304C303.401 258.123 303.117 259.333 303.222 261.226C305.08 260.016 307.068 258.627 309.151 257.858C308.718 258.837 303.553 261.684 302.387 262.44C288.505 271.435 271.801 282.394 256.396 288.361C243.542 293.34 234.669 295.401 220.922 291.57C218.235 290.821 215.569 290.089 212.962 289.084C207.659 287.04 202.25 285.071 196.473 285.146C192.631 285.195 188.663 286.742 184.948 287.649C179.906 288.881 175.008 289.431 169.821 289.383C168.36 289.37 166.251 289.602 164.88 289.143L164.832 288.914C166.646 288.37 169.678 288.816 171.677 288.777C173.901 288.756 176.115 288.598 178.319 288.306C183.081 287.67 187.716 286.331 192.361 285.14C198.53 283.622 204.686 282.052 210.827 280.428C213.308 279.794 218.149 279.04 220.245 278.008L220.319 278.064C220.249 276.183 218.593 272.169 218.078 270.032C216.692 264.284 216.503 258.751 216.576 252.867L216.447 252.505Z"
      fill="#FBE7DA" />
   <path
      d="M216.447 252.505L234.34 250.527C237.818 250.168 241.814 249.326 245.271 249.867C247.736 250.253 250.175 251.425 252.114 252.976C254.958 255.25 257.303 258.953 257.646 262.628C257.736 263.588 257.664 264.617 257.5 265.565C263.054 261.634 268.99 258.41 275.614 256.648C278.611 255.851 280.917 255.985 283.644 257.549C286.298 256.445 288.996 255.462 291.737 254.597C290.957 255.436 278.629 260.312 276.26 261.52C270.535 264.438 265.304 268.294 259.833 271.65C249.128 278.219 231.354 286.708 218.7 287.193C217.263 287.258 215.827 287.247 214.391 287.161C219.897 290.828 226.555 290.226 232.766 288.961C237.343 288.029 241.787 286.418 246.105 284.664C258.462 279.646 267.453 273.854 278.809 267.277C283.902 264.328 289.284 261.709 294.194 258.471C295.973 257.297 297.474 255.794 299.208 254.591C298.568 255.601 297.916 256.689 296.958 257.432C292.223 261.101 284.815 264.705 279.434 267.784C271.085 272.56 262.901 277.808 254.177 281.876C247.79 284.855 240.992 287.774 234.089 289.304C229.394 290.345 224.85 290.614 220.059 290.439C233.757 295.609 247.229 291.922 259.99 286.17C272.695 280.443 284.625 272.96 296.449 265.627C298.021 264.653 302.158 262.405 303.222 261.226C305.08 260.016 307.068 258.627 309.151 257.858C308.718 258.837 303.553 261.684 302.387 262.44C288.505 271.435 271.801 282.394 256.396 288.361C243.542 293.34 234.669 295.401 220.922 291.57C218.235 290.821 215.569 290.089 212.962 289.084C207.659 287.04 202.25 285.071 196.473 285.145C192.631 285.195 188.663 286.742 184.948 287.649C179.906 288.88 175.008 289.431 169.821 289.383C168.36 289.37 166.251 289.602 164.88 289.143L164.832 288.914C166.646 288.37 169.678 288.816 171.677 288.777C173.901 288.756 176.115 288.598 178.319 288.306C183.081 287.67 187.716 286.33 192.361 285.14C198.53 283.622 204.686 282.051 210.827 280.428C213.308 279.793 218.149 279.04 220.245 278.008L220.319 278.064C220.693 278.161 220.954 278.183 221.34 278.135C228.512 277.275 235.666 276.293 242.804 275.189C245.12 274.827 247.663 274.728 249.864 273.886C251.8 273.146 253.614 271.726 254.878 270.092C256.654 267.797 257.609 264.769 257.162 261.875C256.61 258.301 254.197 254.887 251.313 252.784C249.543 251.493 247.388 250.533 245.21 250.225C241.285 249.671 236.345 250.701 232.381 251.102C227.114 251.635 221.805 252.015 216.576 252.867L216.447 252.505Z"
      fill="#1A1918" />
   <path
      d="M242.509 275.719C242.752 275.68 242.984 275.697 243.229 275.703L243.142 275.92C241.239 277.246 238.854 278.202 236.762 279.207C227.516 283.653 220.256 285.853 209.864 284.829L208.225 284.399C211.892 283.303 215.816 282.388 219.328 280.869C221.044 280.127 222.499 278.656 224.297 278.145C226.516 277.515 229.163 277.438 231.456 277.165C235.145 276.718 238.829 276.237 242.509 275.719Z"
      fill="#F9F7F2" />
   <path
      d="M257.5 265.565C263.053 261.634 268.989 258.41 275.614 256.648C278.611 255.851 280.916 255.985 283.643 257.549C273.407 261.318 264.98 268.145 255.569 273.512C251.475 275.846 247.221 277.784 242.912 279.679C234.478 283.387 219.613 289.58 210.816 285.497C210.697 285.441 210.578 285.384 210.46 285.326C220.531 286.564 229.591 283.243 238.505 278.959C240.595 277.955 242.59 276.644 244.724 275.755C247.534 274.583 250.312 274.732 252.864 272.763C255.298 270.886 256.543 268.423 257.5 265.565Z"
      fill="#FBE7DA" />
   <path
      d="M183.838 35.9141C192.632 31.3315 204.078 30.9771 213.476 33.9279C226.017 37.8655 235.991 46.0707 242.03 57.7515C242.946 59.5341 243.793 61.3489 244.571 63.196C247.025 63.9513 249.26 64.9893 251.474 66.2904C260.883 71.7553 266.699 80.0206 269.517 90.5042C271.155 96.6012 270.692 102.731 270.409 108.948L270.098 108.677C268.362 107.819 266.759 107.365 264.863 108.04C264.341 108.226 263.84 108.469 263.344 108.714C262.199 110.216 261.271 111.339 261.574 113.371C261.775 114.716 262.635 116.107 263.742 116.897C264.233 117.248 264.822 117.499 265.367 117.755C265.872 117.618 266.38 117.552 266.896 117.473C266.947 117.471 266.998 117.471 267.048 117.469L267.3 117.457C268.044 117.425 268.556 117.342 269.237 117.03L270.15 117.256L270.113 117.6C269.979 118.893 270.242 120.383 269.398 121.464L269.221 121.555C266.901 121.457 255.17 121.033 253.858 121.673L253.578 122.125C253.138 121.914 252.761 121.757 252.283 121.64C251.453 121.451 239.753 121.683 239.246 121.869L238.678 121.277C238.909 119.956 238.965 119.164 238.464 117.888L239.021 117.464C238.593 116.603 237.973 115.887 237.144 115.389C235.649 114.493 233.939 114.662 232.323 115.038C229.193 114.541 225.757 114.911 222.584 114.841L222.576 124.679C222.573 126.208 222.751 128.031 222.473 129.526C217.727 129.778 219.16 131.082 215.823 132.946L211.332 133.169C211.39 136.566 211.373 139.962 211.28 143.358C210.461 143.96 209.847 144.548 209.368 145.456C208.855 147.195 208.615 148.842 209.518 150.523C209.604 150.682 209.698 150.836 209.799 150.986C209.9 151.135 210.009 151.28 210.125 151.418C210.241 151.557 210.363 151.689 210.493 151.815C210.622 151.941 210.758 152.06 210.899 152.173C211.041 152.285 211.188 152.39 211.34 152.487C211.492 152.585 211.649 152.674 211.81 152.756C211.972 152.837 212.137 152.91 212.305 152.975C212.474 153.04 212.646 153.096 212.82 153.143C213.003 153.195 213.189 153.237 213.376 153.269C213.564 153.302 213.752 153.324 213.942 153.337C214.132 153.35 214.322 153.353 214.512 153.346C214.703 153.339 214.892 153.322 215.081 153.295C215.269 153.269 215.456 153.232 215.64 153.186C215.825 153.139 216.007 153.084 216.185 153.019C216.364 152.953 216.539 152.879 216.71 152.796C216.881 152.713 217.048 152.621 217.209 152.52C218.851 151.479 219.38 149.953 219.784 148.165C225.166 148.189 230.57 148.115 235.947 148.303C236.689 151.015 237.307 153.753 238.027 156.467C236.038 158.115 234.306 159.852 232.623 161.812L232.878 162.055C231.688 163.452 230.536 164.88 229.421 166.339C229.345 176.011 229.335 185.684 229.392 195.356C229.595 198.658 229.31 201.829 229.954 205.101C230.239 204.377 230.484 203.539 230.901 202.884C230.767 203.271 230.606 203.716 230.595 204.128C230.579 204.683 230.828 205.297 230.867 205.867C230.975 207.455 230.968 209.071 231.004 210.664C229.343 212.408 226.492 213.768 224.274 214.656C224.229 216.02 224.066 217.487 224.163 218.844C222.889 220.174 217.425 221.993 215.442 222.69C197.22 229.1 176.705 230.879 157.94 225.732C154.445 224.798 151.031 223.628 147.697 222.223C146.452 221.691 139.342 218.028 138.762 218.114L138.775 218.831L138.586 219.015C137.154 218.481 135.733 217.918 134.324 217.327C132.915 216.735 131.518 216.115 130.133 215.467C128.749 214.819 127.378 214.143 126.021 213.439C124.664 212.736 123.322 212.005 121.994 211.247C120.667 210.489 119.356 209.705 118.06 208.894C116.764 208.083 115.485 207.246 114.224 206.383C112.962 205.52 111.718 204.632 110.492 203.72C109.266 202.806 108.059 201.869 106.871 200.907C106.211 200.379 105.556 199.845 104.908 199.302C104.259 198.76 103.617 198.21 102.981 197.653C102.345 197.096 101.716 196.532 101.093 195.96C100.47 195.389 99.8541 194.81 99.2443 194.225C98.6346 193.639 98.0318 193.047 97.4356 192.447C96.8396 191.848 96.2504 191.242 95.6683 190.629C95.0862 190.016 94.511 189.397 93.9431 188.771C93.375 188.145 92.8143 187.512 92.2609 186.873C91.7072 186.234 91.161 185.589 90.6225 184.938C90.0837 184.286 89.5524 183.629 89.0288 182.965C88.5051 182.302 87.989 181.632 87.4807 180.957C86.9726 180.281 86.4721 179.6 85.9793 178.913C85.4866 178.226 85.0017 177.534 84.5247 176.836C84.0481 176.138 83.5793 175.435 83.1184 174.726C82.6575 174.017 82.2049 173.303 81.7607 172.584C81.3164 171.865 80.8803 171.141 80.4523 170.412C80.0245 169.683 79.6052 168.949 79.1942 168.21C78.7831 167.471 78.3805 166.728 77.9867 165.98C77.5928 165.232 77.2075 164.48 76.8306 163.723C76.4538 162.967 76.0857 162.206 75.7265 161.44C75.3672 160.675 75.0168 159.906 74.6753 159.133C74.3335 158.36 74.0007 157.583 73.6767 156.802C73.353 156.021 73.0381 155.237 72.7322 154.449C72.4262 153.661 72.1294 152.869 71.8414 152.074C71.5537 151.279 71.2752 150.481 71.0057 149.68C70.7361 148.879 70.4758 148.075 70.2246 147.267C69.9737 146.46 69.7319 145.65 69.4993 144.838C69.2666 144.025 69.0434 143.21 68.8295 142.392C68.616 141.574 68.4116 140.754 68.2164 139.931C68.0213 139.109 67.8357 138.284 67.6596 137.457C67.4835 136.63 67.3167 135.802 67.1594 134.971C67.0023 134.141 66.8546 133.308 66.7165 132.474C66.0808 128.86 65.779 125.195 65.4004 121.547C69.6036 120.743 72.5629 120.61 73.7942 115.75C73.9733 115.045 73.9806 114.291 74.4544 113.734L74.439 113.655C81.5043 113.528 88.5396 113.86 95.6086 113.588C96.838 112.283 98.0529 110.965 99.2532 109.633C101.015 116.471 103.278 119.672 109.304 123.493C111.464 124.863 113.421 126.065 115.256 127.867C115.458 127.485 115.741 127.196 116.031 126.88C115.931 126.642 115.788 126.431 115.655 126.21C114.526 125.517 113.473 124.654 112.349 123.932C111.857 122.824 111.601 121.584 111.457 120.385C110.736 114.379 112.861 108.803 116.506 104.102C112.065 101.293 107.12 96.392 105.207 91.4031C103.879 87.9401 103.65 83.2388 105.173 79.8028L105.839 79.7842C106.491 80.9782 105.792 83.1083 105.796 84.4679C105.8 85.6013 105.954 86.7847 106.165 87.8973C107.391 94.3472 112.602 99.1175 117.815 102.648C119.904 100.313 122.297 99.2297 125.247 98.3279C125.028 92.2411 124.93 86.0411 130.207 81.9745C131.49 80.9854 132.987 80.2737 134.387 79.4647C136.221 78.4048 137.76 77.0829 138.628 75.1022C140.81 70.1298 137.148 64.3188 141.141 57.6583C142.768 54.9443 145.461 52.1467 148.631 51.3516L148.929 51.9132C152.35 48.6866 155.548 45.2386 158.941 41.9842C161.856 39.1869 164.962 36.6073 167.854 33.7737C172.401 34.632 176.26 35.6671 180.204 38.1711C181.401 37.388 182.595 36.6223 183.838 35.9141Z"
      fill="#1A1918" />
   <path
      d="M180.379 154.694C180.751 155.296 180.859 155.832 180.99 156.523L180.963 160.338C180.592 160.163 180.558 159.875 180.39 159.514C180.349 157.908 180.346 156.301 180.379 154.694Z"
      fill="#F56751" />
   <path
      d="M168.389 112.566C169.645 112.473 170.906 112.42 172.142 112.707C173.707 113.071 176.021 114.018 176.894 115.446L176.716 115.544L175.935 115.236C175.084 114.723 174.207 114.259 173.304 113.844C171.186 112.888 169.667 112.936 167.54 113.723L167.416 113.52C167.669 113.036 167.948 112.853 168.389 112.566Z"
      fill="#F56751" />
   <path
      d="M135.949 134.613C136.827 134.037 137.47 133.878 138.513 133.978C141.725 134.884 144.771 136.074 146.543 139.116C146.697 139.382 146.829 139.659 146.955 139.939L146.371 140.229C146.145 139.758 145.873 139.314 145.557 138.898C143.307 135.875 139.446 135.081 135.949 134.613Z"
      fill="#F9F7F2" />
   <path
      d="M146.955 139.938C147.123 140.408 147.291 140.875 147.433 141.353C148.269 141.009 149.091 140.665 149.989 140.516C153.439 139.942 164.184 139.992 167.772 140.423C169.123 140.585 170.45 140.871 171.709 141.397C172.002 141.519 172.29 141.65 172.575 141.791C172.859 141.933 173.138 142.083 173.412 142.243C173.687 142.402 173.955 142.571 174.218 142.749C174.481 142.927 174.738 143.113 174.988 143.308C175.239 143.503 175.483 143.706 175.72 143.917C175.956 144.128 176.186 144.347 176.408 144.573C176.631 144.8 176.845 145.034 177.052 145.274C177.259 145.515 177.457 145.763 177.647 146.017C177.585 145.983 177.523 145.95 177.461 145.915C175.278 144.684 173.646 142.839 171.264 141.884C167.935 140.549 153.048 140.272 149.444 141.319C148.547 141.579 147.821 141.969 147.166 142.635C147.212 142.826 147.203 142.745 147.191 143.005C147.116 144.642 146.004 147.126 144.773 148.174C144.345 148.539 144.006 148.696 143.45 148.636C143.4 148.526 143.335 148.422 143.3 148.306C142.862 146.861 145.822 143.558 146.6 142.301C146.649 141.577 146.511 140.937 146.371 140.229L146.955 139.938Z"
      fill="#F56751" />
   <path
      d="M162.773 117.157C162.937 116.629 162.976 116.013 163.515 115.741C164.981 115.002 167.358 115.279 168.782 115.956C170.501 116.774 171.491 118.221 172.022 120.012C172.041 120.077 172.054 120.143 172.069 120.208L171.675 120.237L172.047 120.39C171.972 120.353 171.894 120.321 171.821 120.28C169.652 119.061 170.018 115.319 165.974 116.375C165.466 116.508 165.078 116.731 164.831 117.182L164.893 117.288C164.941 117.383 164.992 117.478 165.037 117.575C165.908 119.451 163.966 121.317 166.45 122.359C167.779 122.917 169.457 123.392 170.876 123.629C174.227 124.295 177.271 124.015 180.55 123.151L180.597 123.957C177.005 124.76 173.984 124.891 170.353 124.233C169.808 124.096 169.27 123.939 168.737 123.763C166.959 123.174 162.9 122.17 162.204 120.312C161.826 119.301 162.284 118.046 162.773 117.157Z"
      fill="#F56751" />
   <path
      d="M135.95 134.612C135.082 134.671 134.214 134.677 133.345 134.631C132.476 134.586 131.614 134.488 130.757 134.338C129.953 134.201 128.644 134.008 128.151 133.304C128.17 132.805 128.167 132.694 128.427 132.274C129.539 131.569 133.662 132.755 135.476 132.519C136.812 132.345 138.142 131.673 139.229 130.901C144.551 127.121 145.39 120.313 147.6 114.648C148.561 112.185 149.763 109.851 151.412 107.773C152.838 105.975 154.533 104.48 156.443 103.214C162.613 99.1264 169.802 97.0225 175.727 92.5412C177.271 91.3731 178.724 89.9689 180.704 89.7344L180.681 91.3303C177.558 94.4485 173.987 96.7444 170.06 98.7252C164.634 101.463 158.588 103.589 154.305 108.081C146.277 116.501 150.219 127.249 138.513 133.978C137.47 133.878 136.827 134.036 135.95 134.612Z"
      fill="#F56751" />
   <path
      d="M180.389 159.514C180.557 159.874 180.592 160.163 180.962 160.338L181.066 161.165C181.922 161.752 194.093 161.331 196.171 161.391C197.107 162.624 198.062 163.842 199.035 165.046C204.589 165.011 210.207 164.767 215.755 164.919C216.099 165.707 218.879 171.443 218.874 171.532C218.867 171.646 218.806 171.751 218.773 171.86L218.568 172.06C216.977 172.373 215.293 173.119 213.735 173.603C211.498 174.299 209.052 174.668 206.725 174.886C198.561 175.652 192.167 173.397 184.953 169.965C183.648 169.344 181.565 168.661 180.535 167.673C179.248 166.44 180.355 161.517 180.387 159.743L180.389 159.514Z"
      fill="#FBE7DA" />
   <path
      d="M116.031 126.88L116.275 126.964C118.211 125.735 120.03 125.008 122.351 125.519C124.286 125.944 125.987 127.085 127.031 128.782C127.092 128.882 127.151 128.983 127.208 129.086C127.264 129.188 127.317 129.292 127.368 129.398C127.419 129.504 127.467 129.61 127.513 129.718C127.558 129.826 127.6 129.935 127.64 130.045C127.68 130.156 127.716 130.267 127.75 130.379C127.784 130.491 127.815 130.604 127.843 130.718C127.871 130.831 127.896 130.946 127.918 131.061C127.94 131.176 127.959 131.292 127.975 131.407C127.99 131.524 128.003 131.64 128.013 131.757C128.023 131.873 128.03 131.99 128.034 132.108C128.038 132.225 128.038 132.342 128.036 132.459C128.033 132.576 128.028 132.693 128.02 132.809C128.011 132.926 128 133.043 127.985 133.159C127.971 133.275 127.953 133.391 127.933 133.507C127.912 133.622 127.889 133.737 127.862 133.851C127.836 133.965 127.806 134.078 127.774 134.191C127.417 135.463 126.737 136.512 125.912 137.528C132.545 143.951 139.33 150.186 146.034 156.53C147.68 155.016 149.353 153.868 151.712 154.023C153.597 154.148 155.305 155.111 156.478 156.577C157.642 158.034 158.224 159.987 157.95 161.84C157.806 162.813 157.489 163.876 156.872 164.656L156.521 165.301C156.213 165.642 155.899 166.007 155.553 166.309C154.337 167.369 152.573 167.769 150.993 167.671C148.726 167.532 147.005 166.458 145.553 164.763L145.073 163.806C144.254 161.787 143.896 161.052 144.485 158.86C142.348 156.354 139.898 154.167 137.486 151.934C135.08 149.705 132.75 147.397 130.351 145.16C128.233 143.184 126.022 141.295 124.033 139.186C122.204 139.774 120.295 139.99 118.469 139.258C115.756 138.169 114.602 135.788 113.563 133.257L113.591 132.583C113.807 132.137 113.811 131.467 113.948 130.964C114.252 129.846 114.705 128.883 115.256 127.866C115.458 127.485 115.741 127.195 116.031 126.88Z"
      fill="#F56751" />
   <path
      d="M191.228 150.845C192.974 150.795 194.713 150.747 196.46 150.793L196.435 155.679C197.999 157.655 200.312 159.517 202.275 161.109L216.997 161.305C218.704 164.189 220.75 167.419 221.784 170.604C226.995 168.185 229.022 166.211 232.623 161.812L232.879 162.055C231.689 163.452 230.537 164.88 229.422 166.339C229.345 176.011 229.335 185.683 229.393 195.356L229.198 195.291C229.222 197.383 229.215 199.476 229.177 201.568C227.361 196.578 225.573 191.578 223.814 186.567C222.341 182.35 220.963 178.091 219.156 174.002C219.533 173.602 219.962 173.233 220.145 172.703L220.132 172.686C219.818 173.016 219.521 173.295 219.156 173.572L218.847 173.467C218.563 172.935 218.514 172.829 218.53 172.231L218.569 172.06L218.773 171.861C218.807 171.751 218.868 171.647 218.875 171.532C218.88 171.443 216.1 165.708 215.755 164.92C210.208 164.767 204.59 165.012 199.036 165.046C198.062 163.843 197.108 162.625 196.172 161.392C194.093 161.332 181.922 161.753 181.067 161.166L180.963 160.339L180.99 156.523C182.702 156.513 187.799 156.8 189.12 156.511C189.604 156.405 189.998 156.221 190.347 155.863C191.363 154.822 191.182 152.17 191.228 150.845Z"
      fill="#1A1918" />
   <path
      d="M229.147 166.496C228.945 170.851 229.019 175.268 229.023 179.629C228.984 184.851 229.042 190.072 229.197 195.291C229.222 197.384 229.215 199.476 229.177 201.568C227.361 196.579 225.573 191.578 223.814 186.568C222.341 182.351 220.963 178.092 219.155 174.002C219.533 173.603 219.962 173.233 220.145 172.704L220.132 172.686C219.818 173.017 219.521 173.295 219.156 173.573L218.846 173.467C218.563 172.936 218.514 172.83 218.53 172.231C222.461 170.793 225.911 169.192 229.147 166.496Z"
      fill="#F9F7F2" />
   <path
      d="M180.379 154.694C180.103 152.165 180.325 149.4 180.355 146.85C180.389 144.005 180.255 141.03 180.559 138.204C180.713 140.717 180.633 143.285 180.564 145.802C187.334 145.8 194.104 145.734 200.873 145.602C203.689 145.555 206.563 145.679 209.368 145.455C208.856 147.195 208.615 148.842 209.519 150.523C209.604 150.682 209.698 150.836 209.799 150.986C209.901 151.135 210.009 151.279 210.125 151.418C210.241 151.557 210.364 151.689 210.493 151.815C210.623 151.941 210.758 152.06 210.9 152.173C211.041 152.285 211.188 152.39 211.34 152.487C211.493 152.585 211.649 152.674 211.811 152.755C211.972 152.837 212.137 152.91 212.306 152.975C212.474 153.039 212.646 153.095 212.82 153.143C213.004 153.195 213.189 153.237 213.376 153.269C213.564 153.301 213.753 153.324 213.943 153.337C214.133 153.35 214.323 153.353 214.513 153.346C214.703 153.339 214.892 153.322 215.081 153.295C215.269 153.268 215.456 153.232 215.641 153.186C215.825 153.139 216.007 153.084 216.186 153.019C216.365 152.953 216.54 152.879 216.711 152.796C216.882 152.712 217.048 152.62 217.21 152.519C218.851 151.478 219.38 149.953 219.785 148.165C225.166 148.189 230.57 148.115 235.948 148.303C236.689 151.015 237.308 153.753 238.027 156.467C236.038 158.115 234.306 159.852 232.623 161.811C229.021 166.211 226.995 168.185 221.784 170.604C220.749 167.419 218.703 164.189 216.996 161.305L202.275 161.109C200.312 159.517 197.999 157.655 196.434 155.679L196.459 150.793C194.713 150.747 192.974 150.795 191.228 150.845C191.182 152.17 191.362 154.822 190.347 155.863C189.997 156.221 189.603 156.405 189.119 156.511C187.799 156.8 182.701 156.513 180.99 156.523C180.858 155.832 180.751 155.296 180.379 154.694Z"
      fill="#FBE7DA" />
   <path
      d="M125.248 98.3279C125.029 92.2411 124.931 86.0411 130.208 81.9745C131.491 80.9853 132.988 80.2737 134.388 79.4647C136.222 78.4047 137.76 77.0829 138.629 75.1021C140.811 70.1298 137.149 64.3188 141.142 57.6583C142.769 54.9443 145.461 52.1466 148.631 51.3516L148.929 51.9132C153.547 55.6284 155.934 60.4824 156.593 66.3456C157.192 71.6768 157.118 77.187 156.571 82.5146C162.041 78.3146 167.423 75.9193 174.468 76.841C175.225 76.9477 175.98 77.0692 176.733 77.2057C177.637 75.6916 178.929 74.2724 180.692 73.7698C182.261 73.3229 184.225 73.8363 185.569 74.689C186.942 75.5602 187.836 76.8897 188.137 78.4867C188.179 78.7086 188.209 78.9319 188.229 79.1565C188.248 79.3813 188.257 79.6065 188.254 79.832C188.251 80.0576 188.238 80.2825 188.213 80.5068C188.189 80.7312 188.153 80.9537 188.107 81.1743C188.06 81.3952 188.003 81.6132 187.936 81.8283C187.868 82.0436 187.789 82.255 187.701 82.4626C187.613 82.6701 187.514 82.8728 187.406 83.0706C187.298 83.2686 187.18 83.4608 187.053 83.6471C186.116 85.0136 184.684 86.0071 183.045 86.3055C181.614 86.566 180.236 86.1868 179.06 85.3526C177.586 84.3073 176.479 82.8081 176.186 81.0036C176.112 80.5486 176.094 80.085 176.077 79.625C170.821 78.4744 166.216 78.8617 161.619 81.8238C159.133 83.4252 156.327 85.7367 154.856 88.3455C154.114 89.6608 153.529 91.0843 152.513 92.22C150.773 94.163 148.624 95.5453 146.589 97.1412C144.685 98.6353 142.886 100.432 141.399 102.342C135.544 109.857 132.457 119.374 126.858 127.096L124.858 125.615C126.853 122.332 128.886 119.097 130.752 115.734C134.032 109.818 136.792 104.134 141.295 98.9878C139.425 99.3616 137.556 99.7551 135.649 99.8724C127.414 100.379 122.313 99.278 117.008 107.18C116.827 107.449 116.654 107.722 116.487 108C116.32 108.278 116.161 108.56 116.008 108.845C115.855 109.131 115.709 109.42 115.57 109.713C115.432 110.006 115.3 110.302 115.176 110.602C115.052 110.901 114.936 111.203 114.827 111.509C114.718 111.814 114.616 112.121 114.522 112.431C114.428 112.742 114.342 113.054 114.263 113.368C114.185 113.682 114.114 113.998 114.051 114.316C113.988 114.634 113.933 114.953 113.885 115.274C113.838 115.594 113.798 115.916 113.767 116.238C113.736 116.561 113.712 116.884 113.697 117.208C113.681 117.531 113.674 117.855 113.674 118.179C113.674 118.503 113.683 118.827 113.699 119.151C113.716 119.475 113.74 119.798 113.772 120.12C113.805 120.442 113.845 120.764 113.893 121.084C113.941 121.404 113.997 121.724 114.061 122.041C114.377 123.562 114.932 124.844 115.656 126.21C114.526 125.517 113.474 124.654 112.349 123.932C111.857 122.824 111.602 121.584 111.458 120.385C110.737 114.379 112.862 108.803 116.507 104.102C112.065 101.293 107.12 96.3918 105.208 91.403C103.879 87.9399 103.65 83.2386 105.174 79.8026L105.839 79.784C106.492 80.978 105.793 83.1082 105.797 84.4677C105.8 85.6012 105.954 86.7845 106.166 87.8971C107.392 94.347 112.603 99.1174 117.816 102.648C119.905 100.313 122.298 99.2296 125.248 98.3279Z"
      fill="#F56751" />
   <path
      d="M147.731 53.6738C147.745 53.6851 147.76 53.6962 147.774 53.7082C152.49 57.8819 154.405 63.6055 154.757 69.7818C155.154 76.7449 155.537 85.3451 150.577 90.8527C146.242 95.6661 140.282 97.1529 134.05 97.5172C131.782 97.5935 129.485 97.7459 127.242 98.093C127.219 96.1058 127.151 94.0914 127.384 92.1144C127.834 88.3054 129.536 85.215 132.837 83.1466C134.394 82.1704 136.077 81.3395 137.514 80.1874C143.667 75.257 140.82 70.1501 141.585 63.7886C142.107 59.4489 144.343 56.3063 147.731 53.6738Z"
      fill="#1A1918" />
   <path
      d="M199.144 32.5717C201.189 32.2071 203.503 32.5694 205.568 32.7481C209.627 33.2655 213.323 34.1571 217.114 35.7205C219.288 36.5214 221.314 37.4809 223.314 38.6493C231.276 42.4679 239.859 52.216 242.911 60.4422C242.848 60.4743 242.785 60.5054 242.724 60.5382C240.313 61.824 237.002 65.4292 234.327 65.5424C233.995 65.356 233.882 65.3411 233.778 64.9478C233.456 63.7366 233.875 62.5086 233.359 61.2794L233.223 60.948C232.501 59.2234 231.388 57.6877 230.481 56.0593C230.075 55.3285 229.813 54.5071 229.305 53.837C228.907 53.3124 228.393 52.8593 227.786 52.5933C227.18 52.327 226.434 52.2312 225.828 52.5571C225.432 52.7702 225.262 53.1337 225.177 53.5568C224.851 55.1532 229.167 61.4679 230.144 63.267C230.041 64.5378 229.879 65.8371 229.906 67.1115C230.714 68.3893 231.594 69.0521 232.854 69.8182C232.846 71.4953 232.902 73.2305 232.673 74.8933C232.567 75.6671 232.22 76.4344 232.16 77.1996C232.13 77.578 232.214 78.0027 232.459 78.3015C233.034 79.0045 234.347 79.1528 235.188 79.1456C235.801 79.1401 236.382 78.9362 236.786 78.4561C237.166 78.0038 237.336 77.4068 237.374 76.8262C237.452 75.6621 237.176 74.385 237.082 73.2141C236.985 72.0219 237.014 70.8092 237.028 69.6133C238.102 68.8487 239.169 68.0757 240.231 67.2943C241.742 66.0144 243.498 65.2723 244.747 63.6668C246.973 64.5105 249.131 65.4126 251.23 66.5409L251.475 66.2906C260.884 71.7555 266.7 80.0208 269.518 90.5044C271.156 96.6014 270.693 102.732 270.41 108.948L270.098 108.677C268.363 107.819 266.759 107.365 264.864 108.04C264.342 108.226 263.841 108.47 263.345 108.714C262.199 110.217 261.272 111.34 261.575 113.371C261.775 114.716 262.635 116.107 263.743 116.898C264.234 117.248 264.822 117.499 265.368 117.755C265.872 117.618 266.381 117.552 266.897 117.473C266.947 117.472 266.998 117.471 267.048 117.469L267.3 117.457C268.044 117.426 268.557 117.343 269.238 117.03L270.151 117.256L270.113 117.6C269.98 118.893 270.243 120.384 269.398 121.464L269.221 121.555C266.901 121.458 255.171 121.033 253.858 121.673L253.579 122.125C253.139 121.914 252.762 121.757 252.284 121.64C251.454 121.451 239.754 121.684 239.246 121.869L238.679 121.277C238.91 119.956 238.965 119.164 238.465 117.888L239.022 117.464C238.593 116.603 237.974 115.887 237.144 115.39C235.649 114.493 233.94 114.662 232.324 115.038C229.194 114.541 225.758 114.911 222.585 114.841L222.576 124.679C222.574 126.209 222.751 128.031 222.474 129.526C217.727 129.778 219.161 131.082 215.824 132.946L211.333 133.169C211.391 136.566 211.374 139.963 211.281 143.359C210.462 143.96 209.848 144.548 209.369 145.456C206.564 145.679 203.689 145.555 200.873 145.602C194.104 145.734 187.334 145.801 180.564 145.803C180.633 143.286 180.713 140.718 180.56 138.204L180.576 138.016C180.367 136.884 179.317 136.261 178.443 135.616C170.463 129.715 160.395 134.87 155.37 130.35C153.825 128.961 153.086 126.784 153.037 124.747C152.922 120.01 156.184 114.792 159.321 111.472C161.862 108.784 166.247 105.658 170.092 105.57C170.025 105.805 169.882 105.844 169.671 105.947C168.635 106.454 167.349 106.65 166.253 107.055C163.009 108.253 160.26 110.824 158.166 113.51C155.548 116.869 153.071 121.261 153.638 125.674C154.796 134.698 166.035 131.054 172.066 132.246C175.365 132.897 177.965 134.464 180.594 136.492C180.673 132.331 180.867 128.111 180.598 123.957L180.55 123.152C180.451 112.569 181.143 101.902 180.681 91.3302L180.704 89.7342L180.742 86.9764C183.061 87.026 185.275 86.6387 186.996 84.9515C188.386 83.5897 189.07 81.6393 189.038 79.7116C189.008 77.9055 188.318 76.1739 187.004 74.9181C185.166 73.1614 183.126 73.0076 180.727 73.0693C180.466 61.5961 180.595 50.0905 180.54 38.6132C181.645 37.668 182.806 36.8919 184.043 36.1294C184.834 35.7335 185.638 35.3698 186.458 35.038C187.277 34.7064 188.109 34.4081 188.952 34.1428C189.795 33.8775 190.647 33.6464 191.509 33.4492C192.371 33.2522 193.239 33.0897 194.113 32.9618C194.942 32.7999 195.776 32.6862 196.618 32.6209C197.459 32.556 198.301 32.5395 199.144 32.5717Z"
      fill="#F56751" />
   <path
      d="M199.144 32.5717C201.188 32.2071 203.502 32.5694 205.567 32.7481C205.394 34.5592 205.257 36.3361 205.248 38.1583C202.904 38.1079 202.177 37.0947 200.621 35.4749L199.185 37.3003C199.223 35.7237 199.296 34.1443 199.144 32.5717Z"
      fill="#F9F7F2" />
   <path
      d="M203.856 52.4993C202.082 51.849 200.84 51.1357 200.017 49.3366C199.42 48.0323 199.503 46.6331 200.009 45.3109C200.472 44.103 201.32 43.1201 202.511 42.5936C203.937 41.9633 205.637 42.0287 207.05 42.6593C208.366 43.2465 209.457 44.3225 209.942 45.692C209.996 45.8428 210.042 45.9958 210.08 46.1509C210.119 46.3063 210.149 46.4631 210.172 46.6215C210.195 46.7798 210.209 46.9389 210.216 47.0986C210.223 47.2587 210.221 47.4184 210.212 47.578C210.203 47.7378 210.185 47.8968 210.16 48.0547C210.135 48.2126 210.102 48.3688 210.061 48.5236C210.02 48.6782 209.971 48.8304 209.915 48.9802C209.858 49.1297 209.795 49.2763 209.723 49.4197C209.103 50.693 208.17 51.5356 207.031 52.3339L207.093 61.8808C207.737 62.8228 208.408 63.7165 208.154 64.9248C208.073 65.3088 207.918 65.6315 207.722 65.9665C207.542 66.0593 207.562 66.0546 207.334 66.1375C206.389 66.4821 205.216 66.4839 204.317 66.0071C203.501 65.5749 203.17 65.0063 202.895 64.1513C204.341 60.4794 203.81 56.388 203.856 52.4993Z"
      fill="#1A1918" />
   <path
      d="M204.053 43.4759C204.918 43.4364 205.699 43.4283 206.511 43.7707C207.534 44.2018 208.377 45.029 208.777 46.0681C208.822 46.1809 208.861 46.2955 208.894 46.412C208.928 46.5286 208.955 46.6466 208.976 46.766C208.998 46.8854 209.013 47.0055 209.022 47.1263C209.032 47.2471 209.035 47.368 209.032 47.4891C209.03 47.6105 209.021 47.7312 209.006 47.8516C208.992 47.9719 208.971 48.0911 208.944 48.2093C208.917 48.3277 208.885 48.4444 208.847 48.5594C208.809 48.6743 208.765 48.7871 208.715 48.8978C208.158 50.1127 207.151 50.7104 205.933 51.1182C205.075 51.1678 204.261 51.2354 203.449 50.9C203.323 50.8469 203.199 50.7876 203.078 50.7221C202.956 50.6568 202.839 50.5856 202.725 50.5084C202.611 50.4315 202.501 50.3488 202.395 50.2607C202.289 50.1727 202.188 50.0798 202.092 49.9816C201.995 49.8835 201.904 49.7808 201.817 49.6736C201.731 49.5664 201.651 49.4552 201.575 49.3401C201.5 49.2248 201.431 49.1061 201.367 48.9838C201.304 48.8618 201.246 48.7369 201.196 48.6089C200.834 47.687 200.825 46.6545 201.225 45.7451C201.788 44.4678 202.798 43.9223 204.053 43.4759Z"
      fill="#F56751" />
   <path
      d="M194.113 32.9622C194.942 32.8003 195.776 32.6866 196.618 32.6213C197.459 32.556 198.301 32.5394 199.144 32.5716C199.297 34.1442 199.224 35.7236 199.186 37.3003C197.111 42.2095 193.26 46.8177 192.401 52.1456L184.127 52.1679C187.196 45.6886 191.448 39.6164 194.113 32.9622Z"
      fill="#F9F7F2" />
   <path
      d="M252.651 67.4346C254.654 68.6235 256.351 69.9272 258.064 71.5042C258.063 72.555 258.183 73.5524 258.325 74.5912C254.472 74.752 250.606 74.5872 246.749 74.5865C246.809 81.2343 246.81 87.8823 246.751 94.5302L230.736 94.6474C230.662 92.332 230.712 90.0148 230.739 87.6986C233.974 87.6804 237.208 87.6896 240.443 87.7261C240.359 80.9793 240.32 74.2323 240.325 67.4853C243.572 67.508 249.713 68.3319 252.651 67.4346Z"
      fill="#F9F7F2" />
   <path
      d="M217.114 35.7197C219.288 36.5206 221.314 37.4801 223.314 38.6485L223.155 71.7776L208.7 71.7611C208.704 73.9281 208.693 76.0755 208.542 78.2392C206.252 78.2472 203.948 78.3068 201.659 78.2491C201.633 76.0119 201.14 65.9834 202.075 64.7016C202.257 64.4513 202.63 64.2888 202.895 64.1514C203.17 65.0064 203.501 65.5749 204.316 66.0072C205.216 66.484 206.389 66.4822 207.334 66.1376C207.562 66.0547 207.542 66.0594 207.722 65.9666C210.212 66.4204 214.303 66.0897 216.961 66.0865C217.069 55.9623 216.833 45.8454 217.114 35.7197Z"
      fill="#F9F7F2" />
   <path
      d="M214.985 107.654C217.531 107.511 220.062 107.385 222.613 107.402C222.443 112.796 222.36 118.192 222.364 123.589C222.36 125.443 222.126 127.718 222.474 129.526C217.728 129.778 219.161 131.082 215.824 132.946L211.333 133.169C211.391 136.566 211.374 139.962 211.281 143.358C210.462 143.96 209.848 144.548 209.369 145.456C206.564 145.679 203.689 145.555 200.873 145.602C194.104 145.734 187.334 145.801 180.564 145.802C180.633 143.286 180.713 140.717 180.56 138.204L180.576 138.016C182.792 137.706 185.55 138.055 187.822 138.078L204.405 138.215C204.426 134.791 205.297 131.563 205.583 128.171C205.216 127.276 204.723 126.479 204.221 125.657C207.8 125.62 211.377 125.693 214.953 125.877C214.917 119.802 214.928 113.728 214.985 107.654Z"
      fill="#F9F7F2" />
   <path
      d="M251.474 66.29C260.883 71.7549 266.699 80.0202 269.517 90.5038C271.155 96.6008 270.692 102.731 270.41 108.947L270.098 108.677C268.362 107.818 266.759 107.364 264.863 108.04C264.341 108.226 263.841 108.469 263.345 108.714C262.199 110.216 261.271 111.339 261.574 113.371C261.775 114.715 262.635 116.107 263.742 116.897C264.233 117.247 264.822 117.499 265.367 117.754C265.872 117.618 266.38 117.551 266.896 117.472C266.947 117.471 266.998 117.471 267.048 117.469L267.3 117.456C268.044 117.425 268.556 117.342 269.237 117.029L270.15 117.256L270.113 117.599C269.979 118.893 270.242 120.383 269.398 121.464L269.221 121.555C266.901 121.457 255.17 121.032 253.858 121.672L253.578 122.124C253.138 121.913 252.761 121.756 252.283 121.64C251.453 121.451 239.753 121.683 239.246 121.868L238.678 121.277C238.909 119.956 238.965 119.163 238.464 117.888L239.022 117.463C238.593 116.603 237.973 115.887 237.144 115.389C235.649 114.493 233.939 114.661 232.323 115.038C229.193 114.541 225.757 114.91 222.585 114.84L222.576 124.678C222.574 126.208 222.751 128.03 222.473 129.525C222.126 127.718 222.36 125.442 222.364 123.589C222.36 118.192 222.443 112.796 222.612 107.402L223.57 107.376C223.203 106.557 222.851 105.6 222.288 104.897C221.603 104.041 220.701 103.885 219.655 103.809C215.529 103.508 209.467 105.053 206.376 107.89C203.88 110.181 206.387 111.815 206.167 114.314C205.83 118.142 200.98 116.411 198.932 118.136C197.015 119.749 198.027 122.432 198.289 124.521C198.388 125.311 198.34 126.098 198.296 126.891C197.575 127.608 196.774 128.276 195.705 128.297C193.286 128.343 191.06 125.365 189.511 123.763C186.802 120.963 184.922 121.277 181.347 121.223L181.343 114.839C183.725 114.88 186.173 115.006 188.544 114.757C190.723 114.529 193.837 113.652 195.216 111.831C196.818 109.714 194.857 105.587 194.52 103.219C194.367 102.136 194.449 101.057 195.153 100.174C196.906 97.9785 202.458 101.002 205.076 100.61C208.245 100.135 208.917 97.0151 210.626 94.8729C211.543 93.7238 212.862 92.8436 214.358 92.7252C217.392 92.4858 219.109 95.9624 221.114 97.6566C225.076 101.004 228.24 98.7963 232.286 98.5956C235.703 98.4265 237.976 100.741 240.356 102.806C243.751 102.847 247.15 102.82 250.546 102.825C251.959 100.725 253.462 98.6774 254.936 96.6192L254.952 89.8363L269.008 89.8023C266.707 83.1288 263.672 76.1022 258.065 71.5029C256.352 69.9259 254.654 68.6222 252.651 67.4333C252.201 67.1125 251.699 66.8326 251.229 66.5396L251.474 66.29Z"
      fill="#1A1918" />
   <path
      d="M259.126 94.0388C260.874 94.0319 262.621 94.0462 264.369 94.0816C266.226 94.0389 268.083 94.0328 269.94 94.0633C270.688 98.6773 270.805 104.057 270.098 108.677C268.362 107.819 266.759 107.365 264.863 108.04C264.342 108.226 263.841 108.469 263.345 108.714C262.199 110.216 261.272 111.339 261.575 113.371C261.775 114.716 262.635 116.107 263.742 116.897C264.233 117.248 264.822 117.499 265.367 117.755C265.872 117.618 266.381 117.552 266.897 117.473C266.947 117.471 266.998 117.471 267.048 117.469L267.3 117.457C268.044 117.425 268.556 117.342 269.237 117.03L270.15 117.256L270.113 117.6C269.98 118.893 270.243 120.383 269.398 121.464L269.221 121.555C266.901 121.457 255.17 121.033 253.858 121.673L253.578 122.125C253.139 121.914 252.761 121.757 252.284 121.64C251.454 121.451 239.753 121.683 239.246 121.869L238.678 121.277C238.909 119.956 238.965 119.164 238.465 117.888L239.022 117.464C238.593 116.603 237.974 115.887 237.144 115.389C235.649 114.493 233.939 114.662 232.323 115.038C229.193 114.541 225.757 114.911 222.585 114.841L222.576 124.679C222.574 126.208 222.751 128.031 222.474 129.526C222.126 127.719 222.36 125.443 222.364 123.589C222.36 118.192 222.443 112.796 222.613 107.402L223.57 107.377C228.028 107.472 232.508 107.362 236.967 107.347L259.184 107.309L259.126 94.0388Z"
      fill="#FBE7DA" />
   <path
      d="M264.369 94.0813C266.226 94.0386 268.083 94.0325 269.94 94.063C270.688 98.677 270.805 104.056 270.098 108.677C268.362 107.818 266.759 107.365 264.864 108.04C264.342 108.226 263.841 108.469 263.345 108.714C263.398 108.618 263.442 108.517 263.503 108.427C263.878 107.874 264.707 107.64 265.324 107.575C265.767 107.529 266.071 107.484 266.478 107.308L266.376 106.901L266.494 107.046C266.1 106.598 265.478 106.316 264.963 106.015C263.206 104.99 261.622 103.597 260.946 101.612C260.565 100.492 260.186 98.5503 260.739 97.5042C260.858 97.2776 261.038 97.0724 261.029 96.8045C261.009 96.1778 260.667 95.5107 261.022 94.9079C261.608 93.9166 263.22 94.3276 264.215 94.1161C264.267 94.105 264.318 94.0929 264.369 94.0813Z"
      fill="#FBE7DA" />
   <path
      d="M269.237 117.03L270.15 117.256L270.112 117.6C269.979 118.894 270.242 120.384 269.397 121.465L269.22 121.556C266.9 121.458 255.17 121.033 253.857 121.673L253.578 122.125C253.138 121.914 252.761 121.757 252.283 121.641C251.453 121.452 239.753 121.684 239.245 121.869L238.678 121.278C238.908 119.957 238.964 119.164 238.464 117.889L239.021 117.464C239.353 117.846 239.625 117.823 240.11 117.844C243.644 117.994 247.232 117.825 250.774 117.866C255.59 117.922 260.511 118.189 265.319 117.897L265.201 117.732L265.352 117.779L265.367 117.755C265.871 117.619 266.38 117.553 266.896 117.474C266.946 117.472 266.997 117.472 267.047 117.47L267.299 117.458C268.043 117.426 268.556 117.343 269.237 117.03Z"
      fill="#1A1918" />
   <path
      d="M99.2535 109.634C101.016 116.471 103.278 119.672 109.304 123.494C111.464 124.864 113.422 126.066 115.256 127.867C114.705 128.884 114.251 129.847 113.947 130.966C113.811 131.468 113.807 132.139 113.591 132.585L113.563 133.258C114.603 135.79 115.756 138.17 118.469 139.259C120.295 139.991 122.203 139.775 124.033 139.187C126.022 141.297 128.233 143.185 130.351 145.162C132.75 147.399 135.08 149.707 137.486 151.936C139.897 154.168 142.348 156.356 144.485 158.861C143.895 161.054 144.254 161.788 145.073 163.807L145.552 164.764C147.004 166.46 148.726 167.534 150.993 167.673C152.573 167.77 154.336 167.37 155.552 166.31C155.899 166.008 156.213 165.643 156.521 165.303L156.872 164.657C162.377 167.141 167.578 169.121 173.6 170.002C174.582 170.146 176.157 170.494 177.108 170.117C178.351 169.626 179.892 167.928 181.247 168.466C181.699 168.646 182.112 168.896 182.346 169.33C182.136 169.719 182.084 169.662 181.698 169.828C182.23 169.72 182.765 169.622 183.301 169.533C186.333 170.857 189.283 172.402 192.405 173.508C200.902 176.515 209.758 175.565 218.065 172.492L218.843 173.981C215.638 177.148 211.601 180.637 208.808 184.102C212.412 181.203 215.663 177.531 218.98 174.288C221.107 179.216 222.721 184.412 224.535 189.464C226.358 194.538 228.672 199.772 229.684 205.058L229.978 205.629C230.098 205.647 230.223 205.648 230.339 205.684C230.417 205.709 230.605 205.856 230.677 205.909C230.388 206.333 229.796 206.461 229.335 206.638C227.064 208.643 224.753 210.549 222.182 212.167C210.266 219.669 194.968 222.677 181.049 222.688L181.071 227.983C182.507 227.977 183.943 227.942 185.378 227.876C186.814 227.81 188.247 227.714 189.678 227.587C191.109 227.461 192.537 227.305 193.961 227.119C195.385 226.932 196.805 226.716 198.221 226.47C199.636 226.224 201.046 225.948 202.45 225.643C203.853 225.337 205.25 225.003 206.64 224.638C208.029 224.274 209.411 223.881 210.784 223.459C212.157 223.036 213.521 222.585 214.875 222.106C216.814 221.415 218.731 220.667 220.625 219.861C221.449 219.513 222.424 218.9 223.274 218.702C223.62 218.621 223.851 218.704 224.163 218.845C222.889 220.174 217.425 221.993 215.442 222.691C197.22 229.1 176.705 230.879 157.94 225.732C154.445 224.798 151.031 223.628 147.697 222.223C146.452 221.691 139.342 218.028 138.762 218.115L138.775 218.832L138.586 219.016C137.154 218.481 135.733 217.919 134.324 217.327C132.915 216.735 131.518 216.116 130.133 215.468C128.749 214.819 127.378 214.143 126.021 213.44C124.664 212.736 123.322 212.005 121.994 211.247C120.667 210.49 119.356 209.705 118.06 208.894C116.764 208.083 115.485 207.246 114.224 206.384C112.962 205.521 111.718 204.633 110.492 203.72C109.266 202.807 108.059 201.869 106.871 200.907C106.211 200.38 105.556 199.845 104.908 199.303C104.259 198.76 103.617 198.211 102.981 197.654C102.345 197.096 101.716 196.532 101.093 195.961C100.47 195.389 99.8541 194.811 99.2443 194.225C98.6346 193.64 98.0318 193.047 97.4356 192.448C96.8396 191.848 96.2504 191.242 95.6683 190.629C95.0862 190.016 94.511 189.397 93.9431 188.771C93.375 188.145 92.8143 187.512 92.2609 186.874C91.7072 186.235 91.161 185.589 90.6225 184.938C90.0837 184.287 89.5524 183.629 89.0288 182.966C88.5051 182.302 87.989 181.633 87.4807 180.957C86.9726 180.282 86.4721 179.6 85.9793 178.914C85.4866 178.227 85.0017 177.534 84.5247 176.836C84.0481 176.138 83.5793 175.435 83.1184 174.726C82.6575 174.017 82.2049 173.304 81.7607 172.584C81.3164 171.865 80.8803 171.141 80.4523 170.412C80.0245 169.683 79.6052 168.949 79.1942 168.211C78.7831 167.472 78.3805 166.729 77.9867 165.981C77.5928 165.233 77.2075 164.48 76.8306 163.724C76.4538 162.967 76.0857 162.206 75.7265 161.441C75.3672 160.676 75.0168 159.907 74.6753 159.133C74.3335 158.36 74.0007 157.583 73.6767 156.802C73.353 156.021 73.0381 155.237 72.7322 154.449C72.4262 153.661 72.1294 152.87 71.8414 152.075C71.5537 151.28 71.2752 150.481 71.0058 149.68C70.7361 148.879 70.4758 148.075 70.2246 147.268C69.9737 146.461 69.7319 145.651 69.4993 144.838C69.2666 144.025 69.0434 143.21 68.8296 142.392C68.616 141.574 68.4116 140.754 68.2164 139.932C68.0213 139.109 67.8357 138.284 67.6596 137.458C67.4835 136.631 67.3167 135.802 67.1594 134.972C67.0023 134.141 66.8546 133.309 66.7165 132.475C66.0808 128.86 65.779 125.196 65.4004 121.548C69.6036 120.743 72.5629 120.61 73.7942 115.751C73.9733 115.045 73.9806 114.291 74.4544 113.734L74.439 113.656C81.5043 113.528 88.5396 113.86 95.6086 113.588C96.8381 112.284 98.0531 110.966 99.2535 109.634Z"
      fill="#F9F7F2" />
   <path
      d="M129.193 205.019C142.47 204.917 155.746 204.902 169.023 204.976C173.75 205.027 178.466 205.099 183.194 205.084C184.589 205.08 186.461 205.313 187.808 205.068C187.94 205.044 188.043 204.938 188.16 204.873C188.529 203.901 187.756 201.985 188.139 201.434C188.313 202.091 188.363 202.748 188.89 203.197L189.24 203.244L189.136 203.453C188.905 203.924 188.697 204.297 188.685 204.835C189.023 205.186 189.158 205.08 189.633 205.089C197.437 205.239 205.267 205.121 213.075 205.114C218.587 205.109 224.18 205.281 229.685 205.058L229.978 205.629C230.099 205.647 230.223 205.648 230.34 205.684C230.418 205.709 230.606 205.856 230.677 205.909C230.389 206.333 229.797 206.461 229.336 206.638C228.97 206.606 228.597 206.63 228.229 206.636C223.435 206.484 218.576 206.641 213.777 206.627L180.952 206.552L180.632 206.53L180.468 206.727C179.11 206.287 171.965 206.535 170.147 206.522C158.466 206.443 146.784 206.429 135.102 206.482L134.056 206.344C132.613 206.412 130.553 206.883 129.233 206.263C128.967 205.766 129.094 205.563 129.193 205.019Z"
      fill="#F56751" />
   <path
      d="M113.564 133.257C114.603 135.789 115.757 138.169 118.469 139.258C120.295 139.99 122.204 139.774 124.033 139.186C126.023 141.296 128.233 143.184 130.352 145.16C132.75 147.398 135.08 149.706 137.487 151.935C139.898 154.167 142.348 156.354 144.485 158.86C143.896 161.052 144.254 161.787 145.073 163.806L145.553 164.763C147.005 166.458 148.726 167.532 150.994 167.671C152.573 167.769 154.337 167.369 155.553 166.309C155.899 166.007 156.214 165.642 156.522 165.302C161.712 168.107 169.891 171.501 175.801 170.817C168.914 175.318 160.732 176.577 152.7 174.895C150.314 174.395 147.904 173.679 145.608 172.848C144.813 172.56 144.03 172.039 143.229 171.817C142.851 171.712 142.564 171.731 142.205 171.874L141.692 172.63C141.542 173.149 141.274 173.722 141.479 174.248C143.644 176.711 146.373 178.805 148.772 181.052L164.104 195.457C166.751 197.93 169.719 200.371 171.937 203.237C172.897 199.663 180.151 172.433 179.783 170.881C179.457 170.635 179.152 170.62 178.759 170.557L178.79 170.321C179.311 170.123 179.883 170.248 180.425 170.301C180.322 171.28 179.916 172.281 179.682 173.244L177.779 181.095L172.085 204.305L171.945 204.407C171.934 204.345 171.923 204.283 171.91 204.221C171.802 203.716 171.654 203.314 171.328 202.907C169.298 200.373 166.476 198.101 164.11 195.868L149.171 181.839C146.526 179.375 143.619 177.018 141.191 174.343C136.876 184.445 132.876 194.67 129.192 205.018C129.093 205.562 128.966 205.764 129.233 206.261C130.552 206.882 132.612 206.411 134.056 206.343L134.288 206.587C137.026 209.437 140.437 211.444 143.899 213.288C144.6 213.663 145.306 214.027 146.018 214.38C146.729 214.733 147.446 215.075 148.169 215.407C148.891 215.739 149.617 216.06 150.349 216.37C151.081 216.68 151.817 216.979 152.557 217.267C153.298 217.555 154.043 217.831 154.791 218.097C155.54 218.363 156.293 218.617 157.049 218.86C157.806 219.103 158.566 219.335 159.329 219.555C160.093 219.776 160.859 219.985 161.629 220.182C162.399 220.379 163.171 220.565 163.946 220.74C164.722 220.914 165.499 221.076 166.279 221.227C167.059 221.378 167.842 221.518 168.626 221.645C169.41 221.773 170.196 221.888 170.984 221.992C171.771 222.096 172.561 222.189 173.351 222.269C174.142 222.349 174.933 222.418 175.726 222.475C176.519 222.532 177.312 222.576 178.106 222.609C178.9 222.642 179.694 222.663 180.488 222.672L180.526 227.965C168.599 227.843 156.234 225.568 145.429 220.39C140.984 218.258 133.637 214.605 130.692 210.745C130.002 209.841 129.469 208.836 129.029 207.79C128.282 206.01 127.847 204.061 127.237 202.226L122.309 187.31L115.462 167.352C113.56 161.747 111.756 156.099 109.795 150.516C108.682 150.143 107.607 149.741 106.553 149.221C99.6904 145.83 96.3951 140.708 93.9844 133.703C100.455 132.999 107.074 133.95 113.564 133.257Z"
      fill="#1A1918" />
   <path
      d="M145.073 163.807L145.553 164.764C144.702 166.606 144.181 168.819 143.139 170.542C142.88 170.968 142.711 171.134 142.238 171.269L141.912 170.991C142.007 169.878 144.371 164.792 145.073 163.807Z"
      fill="#F9F7F2" />
   <path
      d="M132.901 166.929C134.09 167.759 135.448 168.943 136.759 169.53C138.321 170.229 140.486 170.381 141.796 171.533C141.772 171.901 141.743 172.264 141.692 172.63L141.147 173.471L140.835 173.535C140.577 173.292 139.785 172.417 139.489 172.41C139.934 173.026 140.457 173.524 141.004 174.045C137.77 181.815 134.766 189.672 131.611 197.474C130.805 199.469 130.285 202.075 129.144 203.841C129.022 203.504 129.028 203.67 129.085 203.392C129.262 202.523 129.27 201.678 129.283 200.797C130.281 189.485 131.487 178.196 132.901 166.929Z"
      fill="#F9F7F2" />
   <path
      d="M110.077 150.625C114.373 151.28 118.531 151.307 122.846 150.865C124.366 154.783 126.051 158.565 128.503 162.007C129.483 163.384 131.761 165.158 132.353 166.58C132.96 168.036 129.121 196.778 129.07 201.17L129.068 201.466C128.961 202.467 128.695 203.874 128.78 204.846C128.784 204.894 128.795 204.941 128.802 204.988L128.655 205.063L128.626 204.852L128.571 205.052C128.198 203.519 127.506 202.029 126.981 200.535C125.896 197.405 124.829 194.269 123.78 191.127L110.077 150.625Z"
      fill="#F9F7F2" />
   <path
      d="M99.2536 109.634C101.016 116.471 103.278 119.672 109.304 123.494C111.465 124.864 113.422 126.066 115.256 127.867C114.705 128.884 114.252 129.847 113.948 130.966C113.811 131.468 113.807 132.139 113.591 132.585C110.586 132.608 107.581 132.719 104.575 132.68C100.96 132.634 97.2836 132.402 93.6813 132.733C91.9286 126.015 92.6524 120.24 95.4614 113.979C91.1924 114.202 86.9189 114.104 82.6476 114.015C79.9223 113.959 77.1698 113.974 74.4548 113.734L74.4395 113.656C81.5048 113.528 88.54 113.86 95.6091 113.589C96.8383 112.284 98.0533 110.966 99.2536 109.634Z"
      fill="#1A1918" />
   <path
      d="M104.091 128.482C105.377 128.276 106.854 128.248 108.151 128.352C109.069 128.426 109.761 128.466 110.368 129.191C108.386 128.991 106.235 129.217 104.301 128.842L104.091 128.482Z"
      fill="#F56751" />
   <path
      d="M135.102 206.481C146.783 206.428 158.465 206.441 170.147 206.521C171.964 206.534 179.109 206.285 180.468 206.725L180.482 221.929C168.015 221.565 156.39 218.942 145.305 213.135C141.657 211.224 138.251 209.159 135.102 206.481Z"
      fill="#1A1918" />
   <path
      d="M180.951 206.551L213.776 206.626C218.576 206.64 223.435 206.483 228.228 206.635C215.606 217.819 197.533 221.926 181.032 221.945C181.07 216.822 181.085 211.671 180.951 206.551Z"
      fill="#1A1918" />
</svg>